<svg xmlns="http://www.w3.org/2000/svg" width="2053" height="760" viewBox="0 0 2053 760"><defs><filter id="card-shadow" x="-20%" y="-20%" width="140%" height="140%"><feDropShadow dx="0" dy="2" stdDeviation="4" flood-color="#0f172a" flood-opacity="0.05"/></filter><filter id="label-shadow" x="-20%" y="-20%" width="140%" height="140%"><feDropShadow dx="0" dy="1" stdDeviation="2" flood-color="#0f172a" flood-opacity="0.06"/></filter><marker id="arr-end-0" markerWidth="9" markerHeight="9" refX="7" refY="3" orient="auto" markerUnits="strokeWidth"><path d="M0,0 L7,3 L0,6 z" fill="rgb(148, 163, 184)"/></marker><marker id="arr-start-0" markerWidth="9" markerHeight="9" refX="0" refY="3" orient="auto" markerUnits="strokeWidth"><path d="M7,0 L0,3 L7,6 z" fill="rgb(148, 163, 184)"/></marker></defs><g transform="translate(-69.7,110.79)"><path d="M1675.418340209145,-25.29263052013349 C1762.5689606810145,-25.29263052013349 1762.5689606810145,136.44911784070246 1849.7195811528838,136.44911784070246" fill="none" stroke="rgb(148, 163, 184)" stroke-width="2" marker-end="url(#arr-end-0)"/><path d="M1435.7472466234897,175.93432974182417 C1433.6772692802338,175.93432974182417 1433.6772692802338,329.0748400731042 1431.6072919369778,329.0748400731042" fill="none" stroke="rgb(148, 163, 184)" stroke-width="2" marker-end="url(#arr-end-0)"/><path d="M1435.7472466234897,175.93432974182417 C1343.711629621931,175.93432974182417 1343.711629621931,114.54354869589791 1251.6760126203721,114.54354869589791" fill="none" stroke="rgb(148, 163, 184)" stroke-width="2" marker-end="url(#arr-end-0)"/><path d="M1431.6072919369778,329.0748400731042 C1640.6634365449308,329.0748400731042 1640.6634365449308,136.44911784070246 1849.7195811528838,136.44911784070246" fill="none" stroke="rgb(148, 163, 184)" stroke-width="2" marker-end="url(#arr-end-0)"/><path d="M630.8562916739476,351.8036883393188 C640.7618802574787,351.8036883393188 640.7618802574787,346.17852283049336 650.6674688410098,346.17852283049336" fill="none" stroke="rgb(148, 163, 184)" stroke-width="2" marker-end="url(#arr-end-0)"/><path d="M406.8564205688424,351.8036883393188 C374.2760300544742,351.8036883393188 374.2760300544742,548.7852745523737 341.6956395401059,548.7852745523737" fill="none" stroke="rgb(148, 163, 184)" stroke-width="2" marker-end="url(#arr-end-0)"/><path d="M874.6673624504755,346.17852283049336 C1041.1373803889937,346.17852283049336 1041.1373803889937,329.0748400731042 1207.607398327512,329.0748400731042" fill="none" stroke="rgb(148, 163, 184)" stroke-width="2" marker-end="url(#arr-end-0)"/><path d="M874.6673624504755,346.17852283049336 C951.171740730691,346.17852283049336 951.171740730691,114.54354869589791 1027.6761190109064,114.54354869589791" fill="none" stroke="rgb(148, 163, 184)" stroke-width="2" marker-end="url(#arr-end-0)"/><path d="M874.6673624504755,346.17852283049336 C917.5653394537089,346.17852283049336 784.6593328144115,528.9490728319813 827.557309817645,528.9490728319813" fill="none" stroke="rgb(148, 163, 184)" stroke-width="2" marker-end="url(#arr-end-0)"/><path d="M657.0282672860501,226.34599180688966 C648.5521303178724,226.34599180688966 648.5521303178724,174.85217474459242 640.0759933496947,174.85217474459242" fill="none" stroke="rgb(148, 163, 184)" stroke-width="2" marker-end="url(#arr-end-0)"/><path d="M881.0281608955158,226.34599180688966 C954.3521399532111,226.34599180688966 954.3521399532111,114.54354869589791 1027.6761190109064,114.54354869589791" fill="none" stroke="rgb(148, 163, 184)" stroke-width="2" marker-end="url(#arr-end-0)"/><path d="M341.6956395401059,548.7852745523737 C378.8858808923477,548.7852745523737 378.8858808923477,174.85217474459242 416.0761222445895,174.85217474459242" fill="none" stroke="rgb(148, 163, 184)" stroke-width="2" marker-end="url(#arr-end-0)"/><path d="M1251.6760126203721,114.54354869589791 C1351.5471846013047,114.54354869589791 1351.5471846013047,-25.29263052013349 1451.4183565822375,-25.29263052013349" fill="none" stroke="rgb(148, 163, 184)" stroke-width="2" marker-end="url(#arr-end-0)"/><path d="M1027.6761190109064,114.54354869589791 C833.8760561803006,114.54354869589791 833.8760561803006,174.85217474459242 640.0759933496947,174.85217474459242" fill="none" stroke="rgb(148, 163, 184)" stroke-width="2" marker-end="url(#arr-end-0)"/><path d="M1251.6760126203721,114.54354869589791 C1550.697796886628,114.54354869589791 1550.697796886628,136.44911784070246 1849.7195811528838,136.44911784070246" fill="none" stroke="rgb(148, 163, 184)" stroke-width="2" marker-end="url(#arr-end-0)"/><path d="M1251.6760126203721,114.54354869589791 C1344.1729518424274,114.54354869589791 1344.1729518424274,61.46441765443615 1436.6698910644827,61.46441765443615" fill="none" stroke="rgb(148, 163, 184)" stroke-width="2" marker-end="url(#arr-end-0)"/><path d="M679.9875951117555,459.3073590361071 C753.7724524647002,459.3073590361071 753.7724524647002,528.9490728319813 827.557309817645,528.9490728319813" fill="none" stroke="rgb(148, 163, 184)" stroke-width="2" marker-end="url(#arr-end-0)"/><path d="M1556.6845738516356,526.4183831870724 C1494.1459328943067,526.4183831870724 1494.1459328943067,329.0748400731042 1431.6072919369778,329.0748400731042" fill="none" stroke="rgb(148, 163, 184)" stroke-width="2" marker-end="url(#arr-end-0)"/><path d="M1556.6845738516356,526.4183831870724 C1489.7213932389802,526.4183831870724 1489.7213932389802,525.6220780050623 1422.7582126263248,525.6220780050623" fill="none" stroke="rgb(148, 163, 184)" stroke-width="2" marker-end="url(#arr-end-0)"/><path d="M1051.5572034271106,528.9490728319813 C1129.5823008773114,528.9490728319813 1129.5823008773114,329.0748400731042 1207.607398327512,329.0748400731042" fill="none" stroke="rgb(148, 163, 184)" stroke-width="2" marker-end="url(#arr-end-0)"/><path d="M827.557309817645,528.9490728319813 C584.6264746788754,528.9490728319813 584.6264746788754,548.7852745523737 341.6956395401059,548.7852745523737" fill="none" stroke="rgb(148, 163, 184)" stroke-width="2" marker-end="url(#arr-end-0)"/><path d="M1051.5572034271106,528.9490728319813 C1125.1577612219849,528.9490728319813 1125.1577612219849,525.6220780050623 1198.758319016859,525.6220780050623" fill="none" stroke="rgb(148, 163, 184)" stroke-width="2" marker-end="url(#arr-end-0)"/><g transform="translate(1463.42,-50.79)"><rect x="0" y="0" width="200" height="65" rx="12" fill="#ffffff" stroke="#d8dee8" stroke-width="1.5" filter="url(#card-shadow)"/><g transform="translate(12,12.5) scale(0.63)" fill="none" stroke="#94a3b8" stroke-width="2" stroke-linecap="round" stroke-linejoin="round"><path d="M21 8a2 2 0 0 0-1-1.73l-7-4a2 2 0 0 0-2 0l-7 4A2 2 0 0 0 3 8v8a2 2 0 0 0 1 1.73l7 4a2 2 0 0 0 2 0l7-4A2 2 0 0 0 21 16Z"/><path d="m3.3 7 8.7 5 8.7-5"/><path d="M12 22V12"/></g><text x="35" y="24.73" font-family="-apple-system, BlinkMacSystemFont, &apos;Segoe UI&apos;, Inter, system-ui, sans-serif" font-size="13.5" font-weight="600" fill="#0f172a">Ad Spend</text><text x="12" y="49.35" font-family="-apple-system, BlinkMacSystemFont, &apos;Segoe UI&apos;, Inter, system-ui, sans-serif" font-size="11" fill="#64748b">13 fields</text></g><g transform="translate(1447.75,150.43)"><rect x="0" y="0" width="200" height="65" rx="12" fill="#ffffff" stroke="#d8dee8" stroke-width="1.5" filter="url(#card-shadow)"/><g transform="translate(12,12.5) scale(0.63)" fill="none" stroke="#94a3b8" stroke-width="2" stroke-linecap="round" stroke-linejoin="round"><path d="M21 8a2 2 0 0 0-1-1.73l-7-4a2 2 0 0 0-2 0l-7 4A2 2 0 0 0 3 8v8a2 2 0 0 0 1 1.73l7 4a2 2 0 0 0 2 0l7-4A2 2 0 0 0 21 16Z"/><path d="m3.3 7 8.7 5 8.7-5"/><path d="M12 22V12"/></g><text x="35" y="24.73" font-family="-apple-system, BlinkMacSystemFont, &apos;Segoe UI&apos;, Inter, system-ui, sans-serif" font-size="13.5" font-weight="600" fill="#0f172a">Customer Value</text><text x="12" y="49.35" font-family="-apple-system, BlinkMacSystemFont, &apos;Segoe UI&apos;, Inter, system-ui, sans-serif" font-size="11" fill="#64748b">15 fields</text></g><g transform="translate(1219.61,303.57)"><rect x="0" y="0" width="200" height="65" rx="12" fill="#ffffff" stroke="#d8dee8" stroke-width="1.5" filter="url(#card-shadow)"/><g transform="translate(12,12.5) scale(0.63)" fill="none" stroke="#94a3b8" stroke-width="2" stroke-linecap="round" stroke-linejoin="round"><path d="M21 8a2 2 0 0 0-1-1.73l-7-4a2 2 0 0 0-2 0l-7 4A2 2 0 0 0 3 8v8a2 2 0 0 0 1 1.73l7 4a2 2 0 0 0 2 0l7-4A2 2 0 0 0 21 16Z"/><path d="m3.3 7 8.7 5 8.7-5"/><path d="M12 22V12"/></g><text x="35" y="24.73" font-family="-apple-system, BlinkMacSystemFont, &apos;Segoe UI&apos;, Inter, system-ui, sans-serif" font-size="13.5" font-weight="600" fill="#0f172a">Customers</text><text x="12" y="49.35" font-family="-apple-system, BlinkMacSystemFont, &apos;Segoe UI&apos;, Inter, system-ui, sans-serif" font-size="11" fill="#64748b">9 fields</text></g><g transform="translate(418.86,326.3)"><rect x="0" y="0" width="200" height="65" rx="12" fill="#ffffff" stroke="#d8dee8" stroke-width="1.5" filter="url(#card-shadow)"/><g transform="translate(12,12.5) scale(0.63)" fill="none" stroke="#94a3b8" stroke-width="2" stroke-linecap="round" stroke-linejoin="round"><path d="M21 8a2 2 0 0 0-1-1.73l-7-4a2 2 0 0 0-2 0l-7 4A2 2 0 0 0 3 8v8a2 2 0 0 0 1 1.73l7 4a2 2 0 0 0 2 0l7-4A2 2 0 0 0 21 16Z"/><path d="m3.3 7 8.7 5 8.7-5"/><path d="M12 22V12"/></g><text x="35" y="24.73" font-family="-apple-system, BlinkMacSystemFont, &apos;Segoe UI&apos;, Inter, system-ui, sans-serif" font-size="13.5" font-weight="600" fill="#0f172a">Order Items</text><text x="12" y="49.35" font-family="-apple-system, BlinkMacSystemFont, &apos;Segoe UI&apos;, Inter, system-ui, sans-serif" font-size="11" fill="#64748b">13 fields</text></g><g transform="translate(662.67,320.68)"><rect x="0" y="0" width="200" height="65" rx="12" fill="#ffffff" stroke="#d8dee8" stroke-width="1.5" filter="url(#card-shadow)"/><g transform="translate(12,12.5) scale(0.63)" fill="none" stroke="#94a3b8" stroke-width="2" stroke-linecap="round" stroke-linejoin="round"><path d="M21 8a2 2 0 0 0-1-1.73l-7-4a2 2 0 0 0-2 0l-7 4A2 2 0 0 0 3 8v8a2 2 0 0 0 1 1.73l7 4a2 2 0 0 0 2 0l7-4A2 2 0 0 0 21 16Z"/><path d="m3.3 7 8.7 5 8.7-5"/><path d="M12 22V12"/></g><text x="35" y="24.73" font-family="-apple-system, BlinkMacSystemFont, &apos;Segoe UI&apos;, Inter, system-ui, sans-serif" font-size="13.5" font-weight="600" fill="#0f172a">Orders</text><text x="12" y="49.35" font-family="-apple-system, BlinkMacSystemFont, &apos;Segoe UI&apos;, Inter, system-ui, sans-serif" font-size="11" fill="#64748b">19 fields</text></g><g transform="translate(669.03,200.85)"><rect x="0" y="0" width="200" height="65" rx="12" fill="#ffffff" stroke="#d8dee8" stroke-width="1.5" filter="url(#card-shadow)"/><g transform="translate(12,12.5) scale(0.63)" fill="none" stroke="#94a3b8" stroke-width="2" stroke-linecap="round" stroke-linejoin="round"><path d="M21 8a2 2 0 0 0-1-1.73l-7-4a2 2 0 0 0-2 0l-7 4A2 2 0 0 0 3 8v8a2 2 0 0 0 1 1.73l7 4a2 2 0 0 0 2 0l7-4A2 2 0 0 0 21 16Z"/><path d="m3.3 7 8.7 5 8.7-5"/><path d="M12 22V12"/></g><text x="35" y="24.73" font-family="-apple-system, BlinkMacSystemFont, &apos;Segoe UI&apos;, Inter, system-ui, sans-serif" font-size="13.5" font-weight="600" fill="#0f172a">Page Views</text><text x="12" y="49.35" font-family="-apple-system, BlinkMacSystemFont, &apos;Segoe UI&apos;, Inter, system-ui, sans-serif" font-size="11" fill="#64748b">7 fields</text></g><g transform="translate(428.08,149.35)"><rect x="0" y="0" width="200" height="65" rx="12" fill="#ffffff" stroke="#d8dee8" stroke-width="1.5" filter="url(#card-shadow)"/><g transform="translate(12,12.5) scale(0.63)" fill="none" stroke="#94a3b8" stroke-width="2" stroke-linecap="round" stroke-linejoin="round"><path d="M21 8a2 2 0 0 0-1-1.73l-7-4a2 2 0 0 0-2 0l-7 4A2 2 0 0 0 3 8v8a2 2 0 0 0 1 1.73l7 4a2 2 0 0 0 2 0l7-4A2 2 0 0 0 21 16Z"/><path d="m3.3 7 8.7 5 8.7-5"/><path d="M12 22V12"/></g><text x="35" y="24.73" font-family="-apple-system, BlinkMacSystemFont, &apos;Segoe UI&apos;, Inter, system-ui, sans-serif" font-size="13.5" font-weight="600" fill="#0f172a">Pages</text><text x="12" y="49.35" font-family="-apple-system, BlinkMacSystemFont, &apos;Segoe UI&apos;, Inter, system-ui, sans-serif" font-size="11" fill="#64748b">5 fields</text></g><g transform="translate(129.7,523.29)"><rect x="0" y="0" width="200" height="65" rx="12" fill="#ffffff" stroke="#d8dee8" stroke-width="1.5" filter="url(#card-shadow)"/><g transform="translate(12,12.5) scale(0.63)" fill="none" stroke="#94a3b8" stroke-width="2" stroke-linecap="round" stroke-linejoin="round"><path d="M21 8a2 2 0 0 0-1-1.73l-7-4a2 2 0 0 0-2 0l-7 4A2 2 0 0 0 3 8v8a2 2 0 0 0 1 1.73l7 4a2 2 0 0 0 2 0l7-4A2 2 0 0 0 21 16Z"/><path d="m3.3 7 8.7 5 8.7-5"/><path d="M12 22V12"/></g><text x="35" y="24.73" font-family="-apple-system, BlinkMacSystemFont, &apos;Segoe UI&apos;, Inter, system-ui, sans-serif" font-size="13.5" font-weight="600" fill="#0f172a">Products</text><text x="12" y="49.35" font-family="-apple-system, BlinkMacSystemFont, &apos;Segoe UI&apos;, Inter, system-ui, sans-serif" font-size="11" fill="#64748b">10 fields</text></g><g transform="translate(1210.76,500.12)"><rect x="0" y="0" width="200" height="65" rx="12" fill="#ffffff" stroke="#d8dee8" stroke-width="1.5" filter="url(#card-shadow)"/><g transform="translate(12,12.5) scale(0.63)" fill="none" stroke="#94a3b8" stroke-width="2" stroke-linecap="round" stroke-linejoin="round"><path d="M21 8a2 2 0 0 0-1-1.73l-7-4a2 2 0 0 0-2 0l-7 4A2 2 0 0 0 3 8v8a2 2 0 0 0 1 1.73l7 4a2 2 0 0 0 2 0l7-4A2 2 0 0 0 21 16Z"/><path d="m3.3 7 8.7 5 8.7-5"/><path d="M12 22V12"/></g><text x="35" y="24.73" font-family="-apple-system, BlinkMacSystemFont, &apos;Segoe UI&apos;, Inter, system-ui, sans-serif" font-size="13.5" font-weight="600" fill="#0f172a">Selling Plans</text><text x="12" y="49.35" font-family="-apple-system, BlinkMacSystemFont, &apos;Segoe UI&apos;, Inter, system-ui, sans-serif" font-size="11" fill="#64748b">10 fields</text></g><g transform="translate(1039.68,89.04)"><rect x="0" y="0" width="200" height="65" rx="12" fill="#ffffff" stroke="#d8dee8" stroke-width="1.5" filter="url(#card-shadow)"/><g transform="translate(12,12.5) scale(0.63)" fill="none" stroke="#94a3b8" stroke-width="2" stroke-linecap="round" stroke-linejoin="round"><path d="M21 8a2 2 0 0 0-1-1.73l-7-4a2 2 0 0 0-2 0l-7 4A2 2 0 0 0 3 8v8a2 2 0 0 0 1 1.73l7 4a2 2 0 0 0 2 0l7-4A2 2 0 0 0 21 16Z"/><path d="m3.3 7 8.7 5 8.7-5"/><path d="M12 22V12"/></g><text x="35" y="24.73" font-family="-apple-system, BlinkMacSystemFont, &apos;Segoe UI&apos;, Inter, system-ui, sans-serif" font-size="13.5" font-weight="600" fill="#0f172a">Sessions</text><text x="12" y="49.35" font-family="-apple-system, BlinkMacSystemFont, &apos;Segoe UI&apos;, Inter, system-ui, sans-serif" font-size="11" fill="#64748b">15 fields</text></g><g transform="translate(467.99,433.81)"><rect x="0" y="0" width="200" height="65" rx="12" fill="#ffffff" stroke="#d8dee8" stroke-width="1.5" filter="url(#card-shadow)"/><g transform="translate(12,12.5) scale(0.63)" fill="none" stroke="#94a3b8" stroke-width="2" stroke-linecap="round" stroke-linejoin="round"><path d="M21 8a2 2 0 0 0-1-1.73l-7-4a2 2 0 0 0-2 0l-7 4A2 2 0 0 0 3 8v8a2 2 0 0 0 1 1.73l7 4a2 2 0 0 0 2 0l7-4A2 2 0 0 0 21 16Z"/><path d="m3.3 7 8.7 5 8.7-5"/><path d="M12 22V12"/></g><text x="35" y="24.73" font-family="-apple-system, BlinkMacSystemFont, &apos;Segoe UI&apos;, Inter, system-ui, sans-serif" font-size="13.5" font-weight="600" fill="#0f172a">Subscription Events</text><text x="12" y="49.35" font-family="-apple-system, BlinkMacSystemFont, &apos;Segoe UI&apos;, Inter, system-ui, sans-serif" font-size="11" fill="#64748b">12 fields</text></g><g transform="translate(1568.68,500.92)"><rect x="0" y="0" width="200" height="82" rx="12" fill="#ffffff" stroke="#d8dee8" stroke-width="1.5" filter="url(#card-shadow)"/><g transform="translate(12,20.5) scale(0.63)" fill="none" stroke="#94a3b8" stroke-width="2" stroke-linecap="round" stroke-linejoin="round"><path d="M21 8a2 2 0 0 0-1-1.73l-7-4a2 2 0 0 0-2 0l-7 4A2 2 0 0 0 3 8v8a2 2 0 0 0 1 1.73l7 4a2 2 0 0 0 2 0l7-4A2 2 0 0 0 21 16Z"/><path d="m3.3 7 8.7 5 8.7-5"/><path d="M12 22V12"/></g><text x="35" y="24.23" font-family="-apple-system, BlinkMacSystemFont, &apos;Segoe UI&apos;, Inter, system-ui, sans-serif" font-size="13.5" font-weight="600" fill="#0f172a">Subscription Monthly</text><text x="35" y="41.23" font-family="-apple-system, BlinkMacSystemFont, &apos;Segoe UI&apos;, Inter, system-ui, sans-serif" font-size="13.5" font-weight="600" fill="#0f172a">Snapshot</text><text x="12" y="65.35" font-family="-apple-system, BlinkMacSystemFont, &apos;Segoe UI&apos;, Inter, system-ui, sans-serif" font-size="11" fill="#64748b">18 fields</text></g><g transform="translate(839.56,503.45)"><rect x="0" y="0" width="200" height="65" rx="12" fill="#ffffff" stroke="#d8dee8" stroke-width="1.5" filter="url(#card-shadow)"/><g transform="translate(12,12.5) scale(0.63)" fill="none" stroke="#94a3b8" stroke-width="2" stroke-linecap="round" stroke-linejoin="round"><path d="M21 8a2 2 0 0 0-1-1.73l-7-4a2 2 0 0 0-2 0l-7 4A2 2 0 0 0 3 8v8a2 2 0 0 0 1 1.73l7 4a2 2 0 0 0 2 0l7-4A2 2 0 0 0 21 16Z"/><path d="m3.3 7 8.7 5 8.7-5"/><path d="M12 22V12"/></g><text x="35" y="24.73" font-family="-apple-system, BlinkMacSystemFont, &apos;Segoe UI&apos;, Inter, system-ui, sans-serif" font-size="13.5" font-weight="600" fill="#0f172a">Subscriptions</text><text x="12" y="49.35" font-family="-apple-system, BlinkMacSystemFont, &apos;Segoe UI&apos;, Inter, system-ui, sans-serif" font-size="11" fill="#64748b">24 fields</text></g><g transform="translate(1861.72,110.95)"><rect x="0" y="0" width="200" height="65" rx="12" fill="#ffffff" stroke="#d8dee8" stroke-width="1.5" filter="url(#card-shadow)"/><g transform="translate(12,12.5) scale(0.63)" fill="none" stroke="#94a3b8" stroke-width="2" stroke-linecap="round" stroke-linejoin="round"><path d="M21 8a2 2 0 0 0-1-1.73l-7-4a2 2 0 0 0-2 0l-7 4A2 2 0 0 0 3 8v8a2 2 0 0 0 1 1.73l7 4a2 2 0 0 0 2 0l7-4A2 2 0 0 0 21 16Z"/><path d="m3.3 7 8.7 5 8.7-5"/><path d="M12 22V12"/></g><text x="35" y="24.73" font-family="-apple-system, BlinkMacSystemFont, &apos;Segoe UI&apos;, Inter, system-ui, sans-serif" font-size="13.5" font-weight="600" fill="#0f172a">Traffic Sources</text><text x="12" y="49.35" font-family="-apple-system, BlinkMacSystemFont, &apos;Segoe UI&apos;, Inter, system-ui, sans-serif" font-size="11" fill="#64748b">8 fields</text></g><g transform="translate(1448.67,35.96)"><rect x="0" y="0" width="200" height="65" rx="12" fill="#ffffff" stroke="#d8dee8" stroke-width="1.5" filter="url(#card-shadow)"/><g transform="translate(12,12.5) scale(0.63)" fill="none" stroke="#94a3b8" stroke-width="2" stroke-linecap="round" stroke-linejoin="round"><path d="M21 8a2 2 0 0 0-1-1.73l-7-4a2 2 0 0 0-2 0l-7 4A2 2 0 0 0 3 8v8a2 2 0 0 0 1 1.73l7 4a2 2 0 0 0 2 0l7-4A2 2 0 0 0 21 16Z"/><path d="m3.3 7 8.7 5 8.7-5"/><path d="M12 22V12"/></g><text x="35" y="24.73" font-family="-apple-system, BlinkMacSystemFont, &apos;Segoe UI&apos;, Inter, system-ui, sans-serif" font-size="13.5" font-weight="600" fill="#0f172a">Visitors</text><text x="12" y="49.35" font-family="-apple-system, BlinkMacSystemFont, &apos;Segoe UI&apos;, Inter, system-ui, sans-serif" font-size="11" fill="#64748b">11 fields</text></g></g><g transform="translate(2015,722)" opacity="0.92"><defs><linearGradient id="wmg0" x1="0" y1="0" x2="1" y2="1"><stop stop-color="#05D2FF"/><stop offset=".4" stop-color="#1E88E5"/><stop offset="1" stop-color="#182FFF"/></linearGradient><linearGradient id="wmg1" x1="0" y1="1" x2="1" y2="0"><stop stop-color="#24D8FF"/><stop offset=".4" stop-color="#1E88E5"/><stop offset="1" stop-color="#0046F9"/></linearGradient></defs><g transform="scale(0.046875)"><path d="M421.311 119.85C435.258 133.807 440.996 157.327 440.996 157.327C440.996 157.327 449.53 204.69 449.53 268.995C449.53 177.972 418.65 162.348 311.314 162.348H212.327C157.38 162.348 161.097 217.57 157.38 243.85L152.865 283.556C150.697 325.33 157.951 351.215 200.811 351.215C111.444 351.215 61.806 365.847 61.8062 239.866C61.8061 182.846 70.4043 157.327 70.4043 157.327C70.4043 157.327 76.1419 133.807 90.1183 119.85C104.095 105.877 124.809 104.475 124.809 104.475C124.809 104.475 167.579 98.0374 252.066 98.0374C336.554 98.0374 384.285 104.475 384.285 104.475C384.285 104.475 407.321 105.877 421.311 119.85Z" fill="url(#wmg0)"/><path d="M449.515 271.888C449.52 273.026 449.523 274.174 449.523 275.333C449.523 329.946 441.393 351.201 441.393 351.201C441.393 351.201 435.03 376.952 424.167 388.075C406.929 405.725 388.495 406.71 388.495 406.71C388.495 406.71 348.836 413.061 263.502 413.061C181.632 413.061 127.111 406.749 127.111 406.749C127.111 406.749 104.091 405.337 90.1144 391.377C76.1379 377.394 70.4004 351.201 70.4004 351.201C70.4004 351.201 61.8062 297.401 61.8062 238.506C61.806 352.055 102.131 351.374 175.525 350.133C183.56 349.998 191.992 349.855 200.811 349.855H299.787C343.122 349.855 352.906 318.315 354.792 282.196L359.32 227.093C360.526 204.443 357.608 188.362 350.507 178.012C342.765 166.722 329.575 160.987 311.314 160.987C424.974 160.987 448.73 176.216 449.515 271.888Z" fill="url(#wmg1)"/></g></g></svg>