<svg xmlns="http://www.w3.org/2000/svg" width="1584" height="698" viewBox="0 0 1584 698" role="img" aria-labelledby="t">
<title id="t">Ecommerce Subscription Store data model — 15 data marts, 22 relationships</title>
<rect width="1584" height="698" rx="16" fill="#ffffff"/>
<path d="M1292 641 C 1324.22 641, 1324.22 615, 1356.44 615" fill="none" stroke="#0b63b8" stroke-width="2" stroke-linecap="round"/><path d="M1356.44 609.6L1364 615L1356.44 620.4Z" fill="#0b63b8"/><path d="M756 533 C 788.22 533, 788.22 589, 820.44 589" fill="none" stroke="#0b63b8" stroke-width="2" stroke-linecap="round"/><path d="M820.44 583.6L828 589L820.44 594.4Z" fill="#0b63b8"/><path d="M756 533 C 788.22 533, 788.22 225, 820.44 225" fill="none" stroke="#0b63b8" stroke-width="2" stroke-linecap="round"/><path d="M820.44 219.6L828 225L820.44 230.4Z" fill="#0b63b8"/><path d="M1024 589 C 1190.22 589, 1190.22 615, 1356.44 615" fill="none" stroke="#0b63b8" stroke-width="2" stroke-linecap="round"/><path d="M1356.44 609.6L1364 615L1356.44 620.4Z" fill="#0b63b8"/><path d="M220 147 C 252.22 147, 252.22 407, 284.44 407" fill="none" stroke="#0b63b8" stroke-width="2" stroke-linecap="round"/><path d="M284.44 401.6L292 407L284.44 412.4Z" fill="#0b63b8"/><path d="M220 147 C 520.22 147, 520.22 57, 820.44 57" fill="none" stroke="#0b63b8" stroke-width="2" stroke-linecap="round"/><path d="M820.44 51.6L828 57L820.44 62.4Z" fill="#0b63b8"/><path d="M488 407 C 654.22 407, 654.22 589, 820.44 589" fill="none" stroke="#0b63b8" stroke-width="2" stroke-linecap="round"/><path d="M820.44 583.6L828 589L820.44 594.4Z" fill="#0b63b8"/><path d="M488 407 C 654.22 407, 654.22 225, 820.44 225" fill="none" stroke="#0b63b8" stroke-width="2" stroke-linecap="round"/><path d="M820.44 219.6L828 225L820.44 230.4Z" fill="#0b63b8"/><path d="M488 407 C 520.22 407, 520.22 281, 552.44 281" fill="none" stroke="#0b63b8" stroke-width="2" stroke-linecap="round"/><path d="M552.44 275.6L560 281L552.44 286.4Z" fill="#0b63b8"/><path d="M756 365 C 922.22 365, 922.22 287, 1088.44 287" fill="none" stroke="#0b63b8" stroke-width="2" stroke-linecap="round"/><path d="M1088.44 281.6L1096 287L1088.44 292.4Z" fill="#0b63b8"/><path d="M756 365 C 788.22 365, 788.22 225, 820.44 225" fill="none" stroke="#0b63b8" stroke-width="2" stroke-linecap="round"/><path d="M820.44 219.6L828 225L820.44 230.4Z" fill="#0b63b8"/><path d="M1024 57 C 1056.22 57, 1056.22 287, 1088.44 287" fill="none" stroke="#0b63b8" stroke-width="2" stroke-linecap="round"/><path d="M1088.44 281.6L1096 287L1088.44 292.4Z" fill="#0b63b8"/><path d="M1024 225 C 1056.22 225, 1056.22 641, 1088.44 641" fill="none" stroke="#0b63b8" stroke-width="2" stroke-linecap="round"/><path d="M1088.44 635.6L1096 641L1088.44 646.4Z" fill="#0b63b8"/><path d="M1024 225 C 1056.22 225, 1056.22 287, 1088.44 287" fill="none" stroke="#0b63b8" stroke-width="2" stroke-linecap="round"/><path d="M1088.44 281.6L1096 287L1088.44 292.4Z" fill="#0b63b8"/><path d="M1024 225 C 1190.22 225, 1190.22 615, 1356.44 615" fill="none" stroke="#0b63b8" stroke-width="2" stroke-linecap="round"/><path d="M1356.44 609.6L1364 615L1356.44 620.4Z" fill="#0b63b8"/><path d="M1024 225 C 1056.22 225, 1056.22 475, 1088.44 475" fill="none" stroke="#0b63b8" stroke-width="2" stroke-linecap="round"/><path d="M1088.44 469.6L1096 475L1088.44 480.4Z" fill="#0b63b8"/><path d="M488 145 C 520.22 145, 520.22 281, 552.44 281" fill="none" stroke="#0b63b8" stroke-width="2" stroke-linecap="round"/><path d="M552.44 275.6L560 281L552.44 286.4Z" fill="#0b63b8"/><path d="M756 449 C 788.22 449, 788.22 589, 820.44 589" fill="none" stroke="#0b63b8" stroke-width="2" stroke-linecap="round"/><path d="M820.44 583.6L828 589L820.44 594.4Z" fill="#0b63b8"/><path d="M756 449 C 788.22 449, 788.22 355, 820.44 355" fill="none" stroke="#0b63b8" stroke-width="2" stroke-linecap="round"/><path d="M820.44 349.6L828 355L820.44 360.4Z" fill="#0b63b8"/><path d="M756 281 C 788.22 281, 788.22 589, 820.44 589" fill="none" stroke="#0b63b8" stroke-width="2" stroke-linecap="round"/><path d="M820.44 583.6L828 589L820.44 594.4Z" fill="#0b63b8"/><path d="M756 281 C 788.22 281, 788.22 57, 820.44 57" fill="none" stroke="#0b63b8" stroke-width="2" stroke-linecap="round"/><path d="M820.44 51.6L828 57L820.44 62.4Z" fill="#0b63b8"/><path d="M756 281 C 788.22 281, 788.22 355, 820.44 355" fill="none" stroke="#0b63b8" stroke-width="2" stroke-linecap="round"/><path d="M820.44 349.6L828 355L820.44 360.4Z" fill="#0b63b8"/>
<g><title>Ad Spend</title><rect x="1096.5" y="608.5" width="195" height="65" rx="10" fill="#ffffff" fill-opacity="0.8" stroke="#d1d9e6" stroke-width="1"/><g transform="translate(1108 620) scale(0.67)" fill="none" stroke="#1a1f2e" stroke-width="2.63" stroke-linecap="round" stroke-linejoin="round" color="#1a1f2e"><rect width="20" height="12" x="2" y="6" rx="2"/><circle cx="12" cy="12" r="2"/><path d="M6 12h.01M18 12h.01"/></g><text x="1135" y="628" font-family="Roboto, -apple-system, BlinkMacSystemFont, 'Segoe UI', Helvetica, Arial, sans-serif" font-size="13" font-weight="500" fill="#1a1f2e" dominant-baseline="central" textLength="58.81" lengthAdjust="spacingAndGlyphs">Ad Spend</text><rect x="1108" y="644" width="68.96" height="18" rx="6" fill="#edf1f8"/><g transform="translate(1114 647) scale(0.5)" fill="none" stroke="#5e6b85" stroke-width="3.2" stroke-linecap="round" stroke-linejoin="round" color="#5e6b85"><rect width="18" height="18" x="3" y="3" rx="2"/><path d="M9 3v18"/><path d="M15 3v18"/></g><text x="1130" y="653" font-family="Roboto, -apple-system, BlinkMacSystemFont, 'Segoe UI', Helvetica, Arial, sans-serif" font-size="11" fill="#5e6b85" dominant-baseline="central" textLength="40.96" lengthAdjust="spacingAndGlyphs">13 fields</text><rect x="1180.96" y="644" width="98.92" height="18" rx="6" fill="#edf1f8"/><g transform="translate(1186.96 647) scale(0.5)" fill="none" stroke="#5e6b85" stroke-width="3.2" stroke-linecap="round" stroke-linejoin="round" color="#5e6b85"><path d="m10.586 5.414-5.172 5.172"/><path d="m18.586 13.414-5.172 5.172"/><path d="M6 12h12"/><circle cx="12" cy="20" r="2"/><circle cx="12" cy="4" r="2"/><circle cx="20" cy="12" r="2"/><circle cx="4" cy="12" r="2"/></g><text x="1202.96" y="653" font-family="Roboto, -apple-system, BlinkMacSystemFont, 'Segoe UI', Helvetica, Arial, sans-serif" font-size="11" fill="#5e6b85" dominant-baseline="central" textLength="70.92" lengthAdjust="spacingAndGlyphs">2 relationships</text></g><g><title>Customer Value</title><rect x="560.5" y="500.5" width="195" height="65" rx="10" fill="#ffffff" fill-opacity="0.8" stroke="#d1d9e6" stroke-width="1"/><g transform="translate(572 512) scale(0.67)" fill="none" stroke="#1a1f2e" stroke-width="2.63" stroke-linecap="round" stroke-linejoin="round" color="#1a1f2e"><path d="M16 21v-2a4 4 0 0 0-4-4H6a4 4 0 0 0-4 4v2"/><path d="M16 3.128a4 4 0 0 1 0 7.744"/><path d="M22 21v-2a4 4 0 0 0-3-3.87"/><circle cx="9" cy="7" r="4"/></g><text x="599" y="520" font-family="Roboto, -apple-system, BlinkMacSystemFont, 'Segoe UI', Helvetica, Arial, sans-serif" font-size="13" font-weight="500" fill="#1a1f2e" dominant-baseline="central" textLength="95.99" lengthAdjust="spacingAndGlyphs">Customer Value</text><rect x="572" y="536" width="68.96" height="18" rx="6" fill="#edf1f8"/><g transform="translate(578 539) scale(0.5)" fill="none" stroke="#5e6b85" stroke-width="3.2" stroke-linecap="round" stroke-linejoin="round" color="#5e6b85"><rect width="18" height="18" x="3" y="3" rx="2"/><path d="M9 3v18"/><path d="M15 3v18"/></g><text x="594" y="545" font-family="Roboto, -apple-system, BlinkMacSystemFont, 'Segoe UI', Helvetica, Arial, sans-serif" font-size="11" fill="#5e6b85" dominant-baseline="central" textLength="40.96" lengthAdjust="spacingAndGlyphs">15 fields</text><rect x="644.96" y="536" width="98.92" height="18" rx="6" fill="#edf1f8"/><g transform="translate(650.96 539) scale(0.5)" fill="none" stroke="#5e6b85" stroke-width="3.2" stroke-linecap="round" stroke-linejoin="round" color="#5e6b85"><path d="m10.586 5.414-5.172 5.172"/><path d="m18.586 13.414-5.172 5.172"/><path d="M6 12h12"/><circle cx="12" cy="20" r="2"/><circle cx="12" cy="4" r="2"/><circle cx="20" cy="12" r="2"/><circle cx="4" cy="12" r="2"/></g><text x="666.96" y="545" font-family="Roboto, -apple-system, BlinkMacSystemFont, 'Segoe UI', Helvetica, Arial, sans-serif" font-size="11" fill="#5e6b85" dominant-baseline="central" textLength="70.92" lengthAdjust="spacingAndGlyphs">2 relationships</text></g><g><title>Customers</title><rect x="828.5" y="556.5" width="195" height="65" rx="10" fill="#ffffff" fill-opacity="0.8" stroke="#d1d9e6" stroke-width="1"/><g transform="translate(840 568) scale(0.67)" fill="none" stroke="#1a1f2e" stroke-width="2.63" stroke-linecap="round" stroke-linejoin="round" color="#1a1f2e"><path d="M16 21v-2a4 4 0 0 0-4-4H6a4 4 0 0 0-4 4v2"/><path d="M16 3.128a4 4 0 0 1 0 7.744"/><path d="M22 21v-2a4 4 0 0 0-3-3.87"/><circle cx="9" cy="7" r="4"/></g><text x="867" y="576" font-family="Roboto, -apple-system, BlinkMacSystemFont, 'Segoe UI', Helvetica, Arial, sans-serif" font-size="13" font-weight="500" fill="#1a1f2e" dominant-baseline="central" textLength="64.73" lengthAdjust="spacingAndGlyphs">Customers</text><rect x="840" y="592" width="62.85" height="18" rx="6" fill="#edf1f8"/><g transform="translate(846 595) scale(0.5)" fill="none" stroke="#5e6b85" stroke-width="3.2" stroke-linecap="round" stroke-linejoin="round" color="#5e6b85"><rect width="18" height="18" x="3" y="3" rx="2"/><path d="M9 3v18"/><path d="M15 3v18"/></g><text x="862" y="601" font-family="Roboto, -apple-system, BlinkMacSystemFont, 'Segoe UI', Helvetica, Arial, sans-serif" font-size="11" fill="#5e6b85" dominant-baseline="central" textLength="34.85" lengthAdjust="spacingAndGlyphs">9 fields</text><rect x="906.85" y="592" width="98.92" height="18" rx="6" fill="#edf1f8"/><g transform="translate(912.85 595) scale(0.5)" fill="none" stroke="#5e6b85" stroke-width="3.2" stroke-linecap="round" stroke-linejoin="round" color="#5e6b85"><path d="m10.586 5.414-5.172 5.172"/><path d="m18.586 13.414-5.172 5.172"/><path d="M6 12h12"/><circle cx="12" cy="20" r="2"/><circle cx="12" cy="4" r="2"/><circle cx="20" cy="12" r="2"/><circle cx="4" cy="12" r="2"/></g><text x="928.85" y="601" font-family="Roboto, -apple-system, BlinkMacSystemFont, 'Segoe UI', Helvetica, Arial, sans-serif" font-size="11" fill="#5e6b85" dominant-baseline="central" textLength="70.92" lengthAdjust="spacingAndGlyphs">5 relationships</text></g><g><title>Order Items</title><rect x="24.5" y="114.5" width="195" height="65" rx="10" fill="#ffffff" fill-opacity="0.8" stroke="#d1d9e6" stroke-width="1"/><g transform="translate(36 126) scale(0.67)" fill="none" stroke="#1a1f2e" stroke-width="2.63" stroke-linecap="round" stroke-linejoin="round" color="#1a1f2e"><path d="m2.05 2.05 1.099-.028a1 1 0 0 1 1.008.815l2.69 14.347A1 1 0 0 0 7.83 18H18"/><path d="M4.563 5h16.435a1 1 0 0 1 .981 1.204l-1.026 6.226A2 2 0 0 1 18.962 14H6.25"/><circle cx="18" cy="20" r="2"/><circle cx="8" cy="20" r="2"/></g><text x="63" y="134" font-family="Roboto, -apple-system, BlinkMacSystemFont, 'Segoe UI', Helvetica, Arial, sans-serif" font-size="13" font-weight="500" fill="#1a1f2e" dominant-baseline="central" textLength="70.69" lengthAdjust="spacingAndGlyphs">Order Items</text><rect x="36" y="150" width="68.96" height="18" rx="6" fill="#edf1f8"/><g transform="translate(42 153) scale(0.5)" fill="none" stroke="#5e6b85" stroke-width="3.2" stroke-linecap="round" stroke-linejoin="round" color="#5e6b85"><rect width="18" height="18" x="3" y="3" rx="2"/><path d="M9 3v18"/><path d="M15 3v18"/></g><text x="58" y="159" font-family="Roboto, -apple-system, BlinkMacSystemFont, 'Segoe UI', Helvetica, Arial, sans-serif" font-size="11" fill="#5e6b85" dominant-baseline="central" textLength="40.96" lengthAdjust="spacingAndGlyphs">13 fields</text><rect x="108.96" y="150" width="98.92" height="18" rx="6" fill="#edf1f8"/><g transform="translate(114.96 153) scale(0.5)" fill="none" stroke="#5e6b85" stroke-width="3.2" stroke-linecap="round" stroke-linejoin="round" color="#5e6b85"><path d="m10.586 5.414-5.172 5.172"/><path d="m18.586 13.414-5.172 5.172"/><path d="M6 12h12"/><circle cx="12" cy="20" r="2"/><circle cx="12" cy="4" r="2"/><circle cx="20" cy="12" r="2"/><circle cx="4" cy="12" r="2"/></g><text x="130.96" y="159" font-family="Roboto, -apple-system, BlinkMacSystemFont, 'Segoe UI', Helvetica, Arial, sans-serif" font-size="11" fill="#5e6b85" dominant-baseline="central" textLength="70.92" lengthAdjust="spacingAndGlyphs">2 relationships</text></g><g><title>Orders</title><rect x="292.5" y="374.5" width="195" height="65" rx="10" fill="#ffffff" fill-opacity="0.8" stroke="#d1d9e6" stroke-width="1"/><g transform="translate(304 386) scale(0.67)" fill="none" stroke="#1a1f2e" stroke-width="2.63" stroke-linecap="round" stroke-linejoin="round" color="#1a1f2e"><rect width="8" height="4" x="8" y="2" rx="1" ry="1"/><path d="M16 4h2a2 2 0 0 1 2 2v14a2 2 0 0 1-2 2H6a2 2 0 0 1-2-2V6a2 2 0 0 1 2-2h2"/><path d="M12 11h4"/><path d="M12 16h4"/><path d="M8 11h.01"/><path d="M8 16h.01"/></g><text x="331" y="394" font-family="Roboto, -apple-system, BlinkMacSystemFont, 'Segoe UI', Helvetica, Arial, sans-serif" font-size="13" font-weight="500" fill="#1a1f2e" dominant-baseline="central" textLength="40.92" lengthAdjust="spacingAndGlyphs">Orders</text><rect x="304" y="410" width="68.96" height="18" rx="6" fill="#edf1f8"/><g transform="translate(310 413) scale(0.5)" fill="none" stroke="#5e6b85" stroke-width="3.2" stroke-linecap="round" stroke-linejoin="round" color="#5e6b85"><rect width="18" height="18" x="3" y="3" rx="2"/><path d="M9 3v18"/><path d="M15 3v18"/></g><text x="326" y="419" font-family="Roboto, -apple-system, BlinkMacSystemFont, 'Segoe UI', Helvetica, Arial, sans-serif" font-size="11" fill="#5e6b85" dominant-baseline="central" textLength="40.96" lengthAdjust="spacingAndGlyphs">19 fields</text><rect x="376.96" y="410" width="98.92" height="18" rx="6" fill="#edf1f8"/><g transform="translate(382.96 413) scale(0.5)" fill="none" stroke="#5e6b85" stroke-width="3.2" stroke-linecap="round" stroke-linejoin="round" color="#5e6b85"><path d="m10.586 5.414-5.172 5.172"/><path d="m18.586 13.414-5.172 5.172"/><path d="M6 12h12"/><circle cx="12" cy="20" r="2"/><circle cx="12" cy="4" r="2"/><circle cx="20" cy="12" r="2"/><circle cx="4" cy="12" r="2"/></g><text x="398.96" y="419" font-family="Roboto, -apple-system, BlinkMacSystemFont, 'Segoe UI', Helvetica, Arial, sans-serif" font-size="11" fill="#5e6b85" dominant-baseline="central" textLength="70.92" lengthAdjust="spacingAndGlyphs">4 relationships</text></g><g><title>Page Views</title><rect x="560.5" y="332.5" width="195" height="65" rx="10" fill="#ffffff" fill-opacity="0.8" stroke="#d1d9e6" stroke-width="1"/><g transform="translate(572 344) scale(0.67)" fill="none" stroke="#1a1f2e" stroke-width="2.63" stroke-linecap="round" stroke-linejoin="round" color="#1a1f2e"><path d="M2.062 12.348a1 1 0 0 1 0-.696 10.75 10.75 0 0 1 19.876 0 1 1 0 0 1 0 .696 10.75 10.75 0 0 1-19.876 0"/><circle cx="12" cy="12" r="3"/></g><text x="599" y="352" font-family="Roboto, -apple-system, BlinkMacSystemFont, 'Segoe UI', Helvetica, Arial, sans-serif" font-size="13" font-weight="500" fill="#1a1f2e" dominant-baseline="central" textLength="70.7" lengthAdjust="spacingAndGlyphs">Page Views</text><rect x="572" y="368" width="62.85" height="18" rx="6" fill="#edf1f8"/><g transform="translate(578 371) scale(0.5)" fill="none" stroke="#5e6b85" stroke-width="3.2" stroke-linecap="round" stroke-linejoin="round" color="#5e6b85"><rect width="18" height="18" x="3" y="3" rx="2"/><path d="M9 3v18"/><path d="M15 3v18"/></g><text x="594" y="377" font-family="Roboto, -apple-system, BlinkMacSystemFont, 'Segoe UI', Helvetica, Arial, sans-serif" font-size="11" fill="#5e6b85" dominant-baseline="central" textLength="34.85" lengthAdjust="spacingAndGlyphs">7 fields</text><rect x="638.85" y="368" width="98.92" height="18" rx="6" fill="#edf1f8"/><g transform="translate(644.85 371) scale(0.5)" fill="none" stroke="#5e6b85" stroke-width="3.2" stroke-linecap="round" stroke-linejoin="round" color="#5e6b85"><path d="m10.586 5.414-5.172 5.172"/><path d="m18.586 13.414-5.172 5.172"/><path d="M6 12h12"/><circle cx="12" cy="20" r="2"/><circle cx="12" cy="4" r="2"/><circle cx="20" cy="12" r="2"/><circle cx="4" cy="12" r="2"/></g><text x="660.85" y="377" font-family="Roboto, -apple-system, BlinkMacSystemFont, 'Segoe UI', Helvetica, Arial, sans-serif" font-size="11" fill="#5e6b85" dominant-baseline="central" textLength="70.92" lengthAdjust="spacingAndGlyphs">2 relationships</text></g><g><title>Pages</title><rect x="1096.5" y="254.5" width="195" height="65" rx="10" fill="#ffffff" fill-opacity="0.8" stroke="#d1d9e6" stroke-width="1"/><g transform="translate(1108 266) scale(0.67)" fill="none" stroke="#1a1f2e" stroke-width="2.63" stroke-linecap="round" stroke-linejoin="round" color="#1a1f2e"><path d="M15 2H6a2 2 0 0 0-2 2v16a2 2 0 0 0 2 2h12a2 2 0 0 0 2-2V7Z"/><path d="M14 2v4a2 2 0 0 0 2 2h4"/><path d="M10 9H8"/><path d="M16 13H8"/><path d="M16 17H8"/></g><text x="1135" y="274" font-family="Roboto, -apple-system, BlinkMacSystemFont, 'Segoe UI', Helvetica, Arial, sans-serif" font-size="13" font-weight="500" fill="#1a1f2e" dominant-baseline="central" textLength="37.96" lengthAdjust="spacingAndGlyphs">Pages</text><rect x="1108" y="290" width="62.85" height="18" rx="6" fill="#edf1f8"/><g transform="translate(1114 293) scale(0.5)" fill="none" stroke="#5e6b85" stroke-width="3.2" stroke-linecap="round" stroke-linejoin="round" color="#5e6b85"><rect width="18" height="18" x="3" y="3" rx="2"/><path d="M9 3v18"/><path d="M15 3v18"/></g><text x="1130" y="299" font-family="Roboto, -apple-system, BlinkMacSystemFont, 'Segoe UI', Helvetica, Arial, sans-serif" font-size="11" fill="#5e6b85" dominant-baseline="central" textLength="34.85" lengthAdjust="spacingAndGlyphs">5 fields</text><rect x="1174.85" y="290" width="98.92" height="18" rx="6" fill="#edf1f8"/><g transform="translate(1180.85 293) scale(0.5)" fill="none" stroke="#5e6b85" stroke-width="3.2" stroke-linecap="round" stroke-linejoin="round" color="#5e6b85"><path d="m10.586 5.414-5.172 5.172"/><path d="m18.586 13.414-5.172 5.172"/><path d="M6 12h12"/><circle cx="12" cy="20" r="2"/><circle cx="12" cy="4" r="2"/><circle cx="20" cy="12" r="2"/><circle cx="4" cy="12" r="2"/></g><text x="1196.85" y="299" font-family="Roboto, -apple-system, BlinkMacSystemFont, 'Segoe UI', Helvetica, Arial, sans-serif" font-size="11" fill="#5e6b85" dominant-baseline="central" textLength="70.92" lengthAdjust="spacingAndGlyphs">3 relationships</text></g><g><title>Products</title><rect x="828.5" y="24.5" width="195" height="65" rx="10" fill="#ffffff" fill-opacity="0.8" stroke="#d1d9e6" stroke-width="1"/><g transform="translate(840 36) scale(0.67)" fill="none" stroke="#1a1f2e" stroke-width="2.63" stroke-linecap="round" stroke-linejoin="round" color="#1a1f2e"><path d="M11 21.73a2 2 0 0 0 2 0l7-4A2 2 0 0 0 21 16V8a2 2 0 0 0-1-1.73l-7-4a2 2 0 0 0-2 0l-7 4A2 2 0 0 0 3 8v8a2 2 0 0 0 1 1.73z"/><path d="M12 22V12"/><polyline points="3.29 7 12 12 20.71 7"/><path d="m7.5 4.27 9 5.15"/></g><text x="867" y="44" font-family="Roboto, -apple-system, BlinkMacSystemFont, 'Segoe UI', Helvetica, Arial, sans-serif" font-size="13" font-weight="500" fill="#1a1f2e" dominant-baseline="central" textLength="52.84" lengthAdjust="spacingAndGlyphs">Products</text><rect x="840" y="60" width="68.96" height="18" rx="6" fill="#edf1f8"/><g transform="translate(846 63) scale(0.5)" fill="none" stroke="#5e6b85" stroke-width="3.2" stroke-linecap="round" stroke-linejoin="round" color="#5e6b85"><rect width="18" height="18" x="3" y="3" rx="2"/><path d="M9 3v18"/><path d="M15 3v18"/></g><text x="862" y="69" font-family="Roboto, -apple-system, BlinkMacSystemFont, 'Segoe UI', Helvetica, Arial, sans-serif" font-size="11" fill="#5e6b85" dominant-baseline="central" textLength="40.96" lengthAdjust="spacingAndGlyphs">10 fields</text><rect x="912.96" y="60" width="98.92" height="18" rx="6" fill="#edf1f8"/><g transform="translate(918.96 63) scale(0.5)" fill="none" stroke="#5e6b85" stroke-width="3.2" stroke-linecap="round" stroke-linejoin="round" color="#5e6b85"><path d="m10.586 5.414-5.172 5.172"/><path d="m18.586 13.414-5.172 5.172"/><path d="M6 12h12"/><circle cx="12" cy="20" r="2"/><circle cx="12" cy="4" r="2"/><circle cx="20" cy="12" r="2"/><circle cx="4" cy="12" r="2"/></g><text x="934.96" y="69" font-family="Roboto, -apple-system, BlinkMacSystemFont, 'Segoe UI', Helvetica, Arial, sans-serif" font-size="11" fill="#5e6b85" dominant-baseline="central" textLength="70.92" lengthAdjust="spacingAndGlyphs">3 relationships</text></g><g><title>Selling Plans</title><rect x="828.5" y="322.5" width="195" height="65" rx="10" fill="#ffffff" fill-opacity="0.8" stroke="#d1d9e6" stroke-width="1"/><g transform="translate(840 334) scale(0.67)" fill="none" stroke="#1a1f2e" stroke-width="2.63" stroke-linecap="round" stroke-linejoin="round" color="#1a1f2e"><path d="M21 8a2 2 0 0 0-1-1.73l-7-4a2 2 0 0 0-2 0l-7 4A2 2 0 0 0 3 8v8a2 2 0 0 0 1 1.73l7 4a2 2 0 0 0 2 0l7-4A2 2 0 0 0 21 16Z"/><path d="m3.3 7 8.7 5 8.7-5"/><path d="M12 22V12"/></g><text x="867" y="342" font-family="Roboto, -apple-system, BlinkMacSystemFont, 'Segoe UI', Helvetica, Arial, sans-serif" font-size="13" font-weight="500" fill="#1a1f2e" dominant-baseline="central" textLength="77.39" lengthAdjust="spacingAndGlyphs">Selling Plans</text><rect x="840" y="358" width="68.96" height="18" rx="6" fill="#edf1f8"/><g transform="translate(846 361) scale(0.5)" fill="none" stroke="#5e6b85" stroke-width="3.2" stroke-linecap="round" stroke-linejoin="round" color="#5e6b85"><rect width="18" height="18" x="3" y="3" rx="2"/><path d="M9 3v18"/><path d="M15 3v18"/></g><text x="862" y="367" font-family="Roboto, -apple-system, BlinkMacSystemFont, 'Segoe UI', Helvetica, Arial, sans-serif" font-size="11" fill="#5e6b85" dominant-baseline="central" textLength="40.96" lengthAdjust="spacingAndGlyphs">10 fields</text><rect x="912.96" y="358" width="98.92" height="18" rx="6" fill="#edf1f8"/><g transform="translate(918.96 361) scale(0.5)" fill="none" stroke="#5e6b85" stroke-width="3.2" stroke-linecap="round" stroke-linejoin="round" color="#5e6b85"><path d="m10.586 5.414-5.172 5.172"/><path d="m18.586 13.414-5.172 5.172"/><path d="M6 12h12"/><circle cx="12" cy="20" r="2"/><circle cx="12" cy="4" r="2"/><circle cx="20" cy="12" r="2"/><circle cx="4" cy="12" r="2"/></g><text x="934.96" y="367" font-family="Roboto, -apple-system, BlinkMacSystemFont, 'Segoe UI', Helvetica, Arial, sans-serif" font-size="11" fill="#5e6b85" dominant-baseline="central" textLength="70.92" lengthAdjust="spacingAndGlyphs">2 relationships</text></g><g><title>Sessions</title><rect x="828.5" y="192.5" width="195" height="65" rx="10" fill="#ffffff" fill-opacity="0.8" stroke="#d1d9e6" stroke-width="1"/><g transform="translate(840 204) scale(0.67)" fill="none" stroke="#1a1f2e" stroke-width="2.63" stroke-linecap="round" stroke-linejoin="round" color="#1a1f2e"><path d="M14 4.1 12 6"/><path d="m5.1 8-2.9-.8"/><path d="m6 12-1.9 2"/><path d="M7.2 2.2 8 5.1"/><path d="M9.037 9.69a.498.498 0 0 1 .653-.653l11 4.5a.5.5 0 0 1-.074.949l-4.349 1.041a1 1 0 0 0-.74.739l-1.04 4.35a.5.5 0 0 1-.95.074z"/></g><text x="867" y="212" font-family="Roboto, -apple-system, BlinkMacSystemFont, 'Segoe UI', Helvetica, Arial, sans-serif" font-size="13" font-weight="500" fill="#1a1f2e" dominant-baseline="central" textLength="54.32" lengthAdjust="spacingAndGlyphs">Sessions</text><rect x="840" y="228" width="68.96" height="18" rx="6" fill="#edf1f8"/><g transform="translate(846 231) scale(0.5)" fill="none" stroke="#5e6b85" stroke-width="3.2" stroke-linecap="round" stroke-linejoin="round" color="#5e6b85"><rect width="18" height="18" x="3" y="3" rx="2"/><path d="M9 3v18"/><path d="M15 3v18"/></g><text x="862" y="237" font-family="Roboto, -apple-system, BlinkMacSystemFont, 'Segoe UI', Helvetica, Arial, sans-serif" font-size="11" fill="#5e6b85" dominant-baseline="central" textLength="40.96" lengthAdjust="spacingAndGlyphs">15 fields</text><rect x="912.96" y="228" width="98.92" height="18" rx="6" fill="#edf1f8"/><g transform="translate(918.96 231) scale(0.5)" fill="none" stroke="#5e6b85" stroke-width="3.2" stroke-linecap="round" stroke-linejoin="round" color="#5e6b85"><path d="m10.586 5.414-5.172 5.172"/><path d="m18.586 13.414-5.172 5.172"/><path d="M6 12h12"/><circle cx="12" cy="20" r="2"/><circle cx="12" cy="4" r="2"/><circle cx="20" cy="12" r="2"/><circle cx="4" cy="12" r="2"/></g><text x="934.96" y="237" font-family="Roboto, -apple-system, BlinkMacSystemFont, 'Segoe UI', Helvetica, Arial, sans-serif" font-size="11" fill="#5e6b85" dominant-baseline="central" textLength="70.92" lengthAdjust="spacingAndGlyphs">7 relationships</text></g><g><title>Subscription Events</title><rect x="292.5" y="112.5" width="195" height="65" rx="10" fill="#ffffff" fill-opacity="0.8" stroke="#d1d9e6" stroke-width="1"/><g transform="translate(304 124) scale(0.67)" fill="none" stroke="#1a1f2e" stroke-width="2.63" stroke-linecap="round" stroke-linejoin="round" color="#1a1f2e"><path d="m17 2 4 4-4 4"/><path d="M3 11v-1a4 4 0 0 1 4-4h14"/><path d="m7 22-4-4 4-4"/><path d="M21 13v1a4 4 0 0 1-4 4H3"/></g><text x="331" y="132" font-family="Roboto, -apple-system, BlinkMacSystemFont, 'Segoe UI', Helvetica, Arial, sans-serif" font-size="13" font-weight="500" fill="#1a1f2e" dominant-baseline="central" textLength="118.33" lengthAdjust="spacingAndGlyphs">Subscription Events</text><rect x="304" y="148" width="68.96" height="18" rx="6" fill="#edf1f8"/><g transform="translate(310 151) scale(0.5)" fill="none" stroke="#5e6b85" stroke-width="3.2" stroke-linecap="round" stroke-linejoin="round" color="#5e6b85"><rect width="18" height="18" x="3" y="3" rx="2"/><path d="M9 3v18"/><path d="M15 3v18"/></g><text x="326" y="157" font-family="Roboto, -apple-system, BlinkMacSystemFont, 'Segoe UI', Helvetica, Arial, sans-serif" font-size="11" fill="#5e6b85" dominant-baseline="central" textLength="40.96" lengthAdjust="spacingAndGlyphs">12 fields</text><rect x="376.96" y="148" width="93.42" height="18" rx="6" fill="#edf1f8"/><g transform="translate(382.96 151) scale(0.5)" fill="none" stroke="#5e6b85" stroke-width="3.2" stroke-linecap="round" stroke-linejoin="round" color="#5e6b85"><path d="m10.586 5.414-5.172 5.172"/><path d="m18.586 13.414-5.172 5.172"/><path d="M6 12h12"/><circle cx="12" cy="20" r="2"/><circle cx="12" cy="4" r="2"/><circle cx="20" cy="12" r="2"/><circle cx="4" cy="12" r="2"/></g><text x="398.96" y="157" font-family="Roboto, -apple-system, BlinkMacSystemFont, 'Segoe UI', Helvetica, Arial, sans-serif" font-size="11" fill="#5e6b85" dominant-baseline="central" textLength="65.42" lengthAdjust="spacingAndGlyphs">1 relationship</text></g><g><title>Subscription Monthly Snapshot</title><rect x="560.5" y="416.5" width="195" height="65" rx="10" fill="#ffffff" fill-opacity="0.8" stroke="#d1d9e6" stroke-width="1"/><g transform="translate(572 428) scale(0.67)" fill="none" stroke="#1a1f2e" stroke-width="2.63" stroke-linecap="round" stroke-linejoin="round" color="#1a1f2e"><path d="m17 2 4 4-4 4"/><path d="M3 11v-1a4 4 0 0 1 4-4h14"/><path d="m7 22-4-4 4-4"/><path d="M21 13v1a4 4 0 0 1-4 4H3"/></g><text x="599" y="436" font-family="Roboto, -apple-system, BlinkMacSystemFont, 'Segoe UI', Helvetica, Arial, sans-serif" font-size="13" font-weight="500" fill="#1a1f2e" dominant-baseline="central" textLength="137.66" lengthAdjust="spacingAndGlyphs">Subscription Monthly…</text><rect x="572" y="452" width="68.96" height="18" rx="6" fill="#edf1f8"/><g transform="translate(578 455) scale(0.5)" fill="none" stroke="#5e6b85" stroke-width="3.2" stroke-linecap="round" stroke-linejoin="round" color="#5e6b85"><rect width="18" height="18" x="3" y="3" rx="2"/><path d="M9 3v18"/><path d="M15 3v18"/></g><text x="594" y="461" font-family="Roboto, -apple-system, BlinkMacSystemFont, 'Segoe UI', Helvetica, Arial, sans-serif" font-size="11" fill="#5e6b85" dominant-baseline="central" textLength="40.96" lengthAdjust="spacingAndGlyphs">18 fields</text><rect x="644.96" y="452" width="98.92" height="18" rx="6" fill="#edf1f8"/><g transform="translate(650.96 455) scale(0.5)" fill="none" stroke="#5e6b85" stroke-width="3.2" stroke-linecap="round" stroke-linejoin="round" color="#5e6b85"><path d="m10.586 5.414-5.172 5.172"/><path d="m18.586 13.414-5.172 5.172"/><path d="M6 12h12"/><circle cx="12" cy="20" r="2"/><circle cx="12" cy="4" r="2"/><circle cx="20" cy="12" r="2"/><circle cx="4" cy="12" r="2"/></g><text x="666.96" y="461" font-family="Roboto, -apple-system, BlinkMacSystemFont, 'Segoe UI', Helvetica, Arial, sans-serif" font-size="11" fill="#5e6b85" dominant-baseline="central" textLength="70.92" lengthAdjust="spacingAndGlyphs">2 relationships</text></g><g><title>Subscriptions</title><rect x="560.5" y="248.5" width="195" height="65" rx="10" fill="#ffffff" fill-opacity="0.8" stroke="#d1d9e6" stroke-width="1"/><g transform="translate(572 260) scale(0.67)" fill="none" stroke="#1a1f2e" stroke-width="2.63" stroke-linecap="round" stroke-linejoin="round" color="#1a1f2e"><path d="m17 2 4 4-4 4"/><path d="M3 11v-1a4 4 0 0 1 4-4h14"/><path d="m7 22-4-4 4-4"/><path d="M21 13v1a4 4 0 0 1-4 4H3"/></g><text x="599" y="268" font-family="Roboto, -apple-system, BlinkMacSystemFont, 'Segoe UI', Helvetica, Arial, sans-serif" font-size="13" font-weight="500" fill="#1a1f2e" dominant-baseline="central" textLength="80.37" lengthAdjust="spacingAndGlyphs">Subscriptions</text><rect x="572" y="284" width="68.96" height="18" rx="6" fill="#edf1f8"/><g transform="translate(578 287) scale(0.5)" fill="none" stroke="#5e6b85" stroke-width="3.2" stroke-linecap="round" stroke-linejoin="round" color="#5e6b85"><rect width="18" height="18" x="3" y="3" rx="2"/><path d="M9 3v18"/><path d="M15 3v18"/></g><text x="594" y="293" font-family="Roboto, -apple-system, BlinkMacSystemFont, 'Segoe UI', Helvetica, Arial, sans-serif" font-size="11" fill="#5e6b85" dominant-baseline="central" textLength="40.96" lengthAdjust="spacingAndGlyphs">24 fields</text><rect x="644.96" y="284" width="98.92" height="18" rx="6" fill="#edf1f8"/><g transform="translate(650.96 287) scale(0.5)" fill="none" stroke="#5e6b85" stroke-width="3.2" stroke-linecap="round" stroke-linejoin="round" color="#5e6b85"><path d="m10.586 5.414-5.172 5.172"/><path d="m18.586 13.414-5.172 5.172"/><path d="M6 12h12"/><circle cx="12" cy="20" r="2"/><circle cx="12" cy="4" r="2"/><circle cx="20" cy="12" r="2"/><circle cx="4" cy="12" r="2"/></g><text x="666.96" y="293" font-family="Roboto, -apple-system, BlinkMacSystemFont, 'Segoe UI', Helvetica, Arial, sans-serif" font-size="11" fill="#5e6b85" dominant-baseline="central" textLength="70.92" lengthAdjust="spacingAndGlyphs">5 relationships</text></g><g><title>Traffic Sources</title><rect x="1364.5" y="582.5" width="195" height="65" rx="10" fill="#ffffff" fill-opacity="0.8" stroke="#d1d9e6" stroke-width="1"/><g transform="translate(1376 594) scale(0.67)" fill="none" stroke="#1a1f2e" stroke-width="2.63" stroke-linecap="round" stroke-linejoin="round" color="#1a1f2e"><path d="m3 11 18-5v12L3 14v-3z"/><path d="M11.6 16.8a3 3 0 1 1-5.8-1.6"/></g><text x="1403" y="602" font-family="Roboto, -apple-system, BlinkMacSystemFont, 'Segoe UI', Helvetica, Arial, sans-serif" font-size="13" font-weight="500" fill="#1a1f2e" dominant-baseline="central" textLength="90.03" lengthAdjust="spacingAndGlyphs">Traffic Sources</text><rect x="1376" y="618" width="62.85" height="18" rx="6" fill="#edf1f8"/><g transform="translate(1382 621) scale(0.5)" fill="none" stroke="#5e6b85" stroke-width="3.2" stroke-linecap="round" stroke-linejoin="round" color="#5e6b85"><rect width="18" height="18" x="3" y="3" rx="2"/><path d="M9 3v18"/><path d="M15 3v18"/></g><text x="1398" y="627" font-family="Roboto, -apple-system, BlinkMacSystemFont, 'Segoe UI', Helvetica, Arial, sans-serif" font-size="11" fill="#5e6b85" dominant-baseline="central" textLength="34.85" lengthAdjust="spacingAndGlyphs">8 fields</text><rect x="1442.85" y="618" width="98.92" height="18" rx="6" fill="#edf1f8"/><g transform="translate(1448.85 621) scale(0.5)" fill="none" stroke="#5e6b85" stroke-width="3.2" stroke-linecap="round" stroke-linejoin="round" color="#5e6b85"><path d="m10.586 5.414-5.172 5.172"/><path d="m18.586 13.414-5.172 5.172"/><path d="M6 12h12"/><circle cx="12" cy="20" r="2"/><circle cx="12" cy="4" r="2"/><circle cx="20" cy="12" r="2"/><circle cx="4" cy="12" r="2"/></g><text x="1464.85" y="627" font-family="Roboto, -apple-system, BlinkMacSystemFont, 'Segoe UI', Helvetica, Arial, sans-serif" font-size="11" fill="#5e6b85" dominant-baseline="central" textLength="70.92" lengthAdjust="spacingAndGlyphs">3 relationships</text></g><g><title>Visitors</title><rect x="1096.5" y="442.5" width="195" height="65" rx="10" fill="#ffffff" fill-opacity="0.8" stroke="#d1d9e6" stroke-width="1"/><g transform="translate(1108 454) scale(0.67)" fill="none" stroke="#1a1f2e" stroke-width="2.63" stroke-linecap="round" stroke-linejoin="round" color="#1a1f2e"><circle cx="12" cy="8" r="5"/><path d="M20 21a8 8 0 0 0-16 0"/></g><text x="1135" y="462" font-family="Roboto, -apple-system, BlinkMacSystemFont, 'Segoe UI', Helvetica, Arial, sans-serif" font-size="13" font-weight="500" fill="#1a1f2e" dominant-baseline="central" textLength="43.89" lengthAdjust="spacingAndGlyphs">Visitors</text><rect x="1108" y="478" width="68.96" height="18" rx="6" fill="#edf1f8"/><g transform="translate(1114 481) scale(0.5)" fill="none" stroke="#5e6b85" stroke-width="3.2" stroke-linecap="round" stroke-linejoin="round" color="#5e6b85"><rect width="18" height="18" x="3" y="3" rx="2"/><path d="M9 3v18"/><path d="M15 3v18"/></g><text x="1130" y="487" font-family="Roboto, -apple-system, BlinkMacSystemFont, 'Segoe UI', Helvetica, Arial, sans-serif" font-size="11" fill="#5e6b85" dominant-baseline="central" textLength="40.96" lengthAdjust="spacingAndGlyphs">11 fields</text><rect x="1180.96" y="478" width="93.42" height="18" rx="6" fill="#edf1f8"/><g transform="translate(1186.96 481) scale(0.5)" fill="none" stroke="#5e6b85" stroke-width="3.2" stroke-linecap="round" stroke-linejoin="round" color="#5e6b85"><path d="m10.586 5.414-5.172 5.172"/><path d="m18.586 13.414-5.172 5.172"/><path d="M6 12h12"/><circle cx="12" cy="20" r="2"/><circle cx="12" cy="4" r="2"/><circle cx="20" cy="12" r="2"/><circle cx="4" cy="12" r="2"/></g><text x="1202.96" y="487" font-family="Roboto, -apple-system, BlinkMacSystemFont, 'Segoe UI', Helvetica, Arial, sans-serif" font-size="11" fill="#5e6b85" dominant-baseline="central" textLength="65.42" lengthAdjust="spacingAndGlyphs">1 relationship</text></g>
</svg>
