<svg xmlns="http://www.w3.org/2000/svg" width="1370" height="505" viewBox="0 0 1370 505"><defs><filter id="card-shadow" x="-20%" y="-20%" width="140%" height="140%"><feDropShadow dx="0" dy="2" stdDeviation="4" flood-color="#0f172a" flood-opacity="0.05"/></filter><filter id="label-shadow" x="-20%" y="-20%" width="140%" height="140%"><feDropShadow dx="0" dy="1" stdDeviation="2" flood-color="#0f172a" flood-opacity="0.06"/></filter><marker id="arr-end-0" markerWidth="9" markerHeight="9" refX="7" refY="3" orient="auto" markerUnits="strokeWidth"><path d="M0,0 L7,3 L0,6 z" fill="rgb(148, 163, 184)"/></marker><marker id="arr-start-0" markerWidth="9" markerHeight="9" refX="0" refY="3" orient="auto" markerUnits="strokeWidth"><path d="M7,0 L0,3 L7,6 z" fill="rgb(148, 163, 184)"/></marker></defs><g transform="translate(60,51.77)"><path d="M912.0000912993391,185.499949364518 C975.0000660486118,185.499949364518 975.0000660486118,35.49999124802283 1038.0000407978844,35.49999124802283" fill="none" stroke="rgb(148, 163, 184)" stroke-width="2" marker-end="url(#arr-end-0)"/><path d="M912.0000912993391,185.499949364518 C975.0000660486118,185.499949364518 975.0000660486118,335.5000331315277 1038.0000407978844,335.5000331315277" fill="none" stroke="rgb(148, 163, 184)" stroke-width="2" marker-end="url(#arr-end-0)"/><path d="M912.0000912993391,185.499949364518 C975.0000660486118,185.499949364518 975.0000660486118,185.499949364518 1038.0000407978844,185.499949364518" fill="none" stroke="rgb(148, 163, 184)" stroke-width="2" marker-end="url(#arr-end-0)"/><path d="M906.5103369969158,33.73464364341021 C972.2551888974001,33.73464364341021 972.2551888974001,35.49999124802283 1038.0000407978844,35.49999124802283" fill="none" stroke="rgb(148, 163, 184)" stroke-width="2" marker-end="url(#arr-end-0)"/><path d="M212.0000075323295,303.0000331315277 C275.6862434529098,303.0000331315277 275.6862434529098,255.4487627601394 339.3724793734902,255.4487627601394" fill="none" stroke="rgb(148, 163, 184)" stroke-width="2" marker-end="url(#arr-end-0)"/><path d="M212.0000075323295,303.0000331315277 C275.00002416510694,303.0000331315277 275.00002416510694,353.29609688711787 338.00004079788437,353.29609688711787" fill="none" stroke="rgb(148, 163, 184)" stroke-width="2" marker-end="url(#arr-end-0)"/><path d="M563.372529874945,255.4487627601394 C625.6862853364147,255.4487627601394 625.6862853364147,185.499949364518 688.0000407978844,185.499949364518" fill="none" stroke="rgb(148, 163, 184)" stroke-width="2" marker-end="url(#arr-end-0)"/><path d="M563.372529874945,255.4487627601394 C800.6862853364147,255.4487627601394 800.6862853364147,335.5000331315277 1038.0000407978844,335.5000331315277" fill="none" stroke="rgb(148, 163, 184)" stroke-width="2" marker-end="url(#arr-end-0)"/><g transform="translate(700,160)"><rect x="0" y="0" width="200" height="65" rx="12" fill="#ffffff" stroke="#d8dee8" stroke-width="1.5" filter="url(#card-shadow)"/><g transform="translate(12,12.5) scale(0.63)" fill="none" stroke="#94a3b8" stroke-width="2" stroke-linecap="round" stroke-linejoin="round"><path d="M21 8a2 2 0 0 0-1-1.73l-7-4a2 2 0 0 0-2 0l-7 4A2 2 0 0 0 3 8v8a2 2 0 0 0 1 1.73l7 4a2 2 0 0 0 2 0l7-4A2 2 0 0 0 21 16Z"/><path d="m3.3 7 8.7 5 8.7-5"/><path d="M12 22V12"/></g><text x="35" y="24.73" font-family="-apple-system, BlinkMacSystemFont, &apos;Segoe UI&apos;, Inter, system-ui, sans-serif" font-size="13.5" font-weight="600" fill="#0f172a">Appointments</text><text x="12" y="49.35" font-family="-apple-system, BlinkMacSystemFont, &apos;Segoe UI&apos;, Inter, system-ui, sans-serif" font-size="11" fill="#64748b">9 fields</text></g><g transform="translate(694.51,8.23)"><rect x="0" y="0" width="200" height="65" rx="12" fill="#ffffff" stroke="#d8dee8" stroke-width="1.5" filter="url(#card-shadow)"/><g transform="translate(12,12.5) scale(0.63)" fill="none" stroke="#94a3b8" stroke-width="2" stroke-linecap="round" stroke-linejoin="round"><path d="M21 8a2 2 0 0 0-1-1.73l-7-4a2 2 0 0 0-2 0l-7 4A2 2 0 0 0 3 8v8a2 2 0 0 0 1 1.73l7 4a2 2 0 0 0 2 0l7-4A2 2 0 0 0 21 16Z"/><path d="m3.3 7 8.7 5 8.7-5"/><path d="M12 22V12"/></g><text x="35" y="24.73" font-family="-apple-system, BlinkMacSystemFont, &apos;Segoe UI&apos;, Inter, system-ui, sans-serif" font-size="13.5" font-weight="600" fill="#0f172a">Bed Census (daily)</text><text x="12" y="49.35" font-family="-apple-system, BlinkMacSystemFont, &apos;Segoe UI&apos;, Inter, system-ui, sans-serif" font-size="11" fill="#64748b">7 fields</text></g><g transform="translate(0,277.5)"><rect x="0" y="0" width="200" height="65" rx="12" fill="#ffffff" stroke="#d8dee8" stroke-width="1.5" filter="url(#card-shadow)"/><g transform="translate(12,12.5) scale(0.63)" fill="none" stroke="#94a3b8" stroke-width="2" stroke-linecap="round" stroke-linejoin="round"><path d="M21 8a2 2 0 0 0-1-1.73l-7-4a2 2 0 0 0-2 0l-7 4A2 2 0 0 0 3 8v8a2 2 0 0 0 1 1.73l7 4a2 2 0 0 0 2 0l7-4A2 2 0 0 0 21 16Z"/><path d="m3.3 7 8.7 5 8.7-5"/><path d="M12 22V12"/></g><text x="35" y="24.73" font-family="-apple-system, BlinkMacSystemFont, &apos;Segoe UI&apos;, Inter, system-ui, sans-serif" font-size="13.5" font-weight="600" fill="#0f172a">Claims</text><text x="12" y="49.35" font-family="-apple-system, BlinkMacSystemFont, &apos;Segoe UI&apos;, Inter, system-ui, sans-serif" font-size="11" fill="#64748b">11 fields</text></g><g transform="translate(1050,10)"><rect x="0" y="0" width="200" height="65" rx="12" fill="#ffffff" stroke="#d8dee8" stroke-width="1.5" filter="url(#card-shadow)"/><g transform="translate(12,12.5) scale(0.63)" fill="none" stroke="#94a3b8" stroke-width="2" stroke-linecap="round" stroke-linejoin="round"><path d="M21 8a2 2 0 0 0-1-1.73l-7-4a2 2 0 0 0-2 0l-7 4A2 2 0 0 0 3 8v8a2 2 0 0 0 1 1.73l7 4a2 2 0 0 0 2 0l7-4A2 2 0 0 0 21 16Z"/><path d="m3.3 7 8.7 5 8.7-5"/><path d="M12 22V12"/></g><text x="35" y="24.73" font-family="-apple-system, BlinkMacSystemFont, &apos;Segoe UI&apos;, Inter, system-ui, sans-serif" font-size="13.5" font-weight="600" fill="#0f172a">Department</text><text x="12" y="49.35" font-family="-apple-system, BlinkMacSystemFont, &apos;Segoe UI&apos;, Inter, system-ui, sans-serif" font-size="11" fill="#64748b">4 fields</text></g><g transform="translate(351.37,229.95)"><rect x="0" y="0" width="200" height="65" rx="12" fill="#ffffff" stroke="#d8dee8" stroke-width="1.5" filter="url(#card-shadow)"/><g transform="translate(12,12.5) scale(0.63)" fill="none" stroke="#94a3b8" stroke-width="2" stroke-linecap="round" stroke-linejoin="round"><path d="M21 8a2 2 0 0 0-1-1.73l-7-4a2 2 0 0 0-2 0l-7 4A2 2 0 0 0 3 8v8a2 2 0 0 0 1 1.73l7 4a2 2 0 0 0 2 0l7-4A2 2 0 0 0 21 16Z"/><path d="m3.3 7 8.7 5 8.7-5"/><path d="M12 22V12"/></g><text x="35" y="24.73" font-family="-apple-system, BlinkMacSystemFont, &apos;Segoe UI&apos;, Inter, system-ui, sans-serif" font-size="13.5" font-weight="600" fill="#0f172a">Encounters</text><text x="12" y="49.35" font-family="-apple-system, BlinkMacSystemFont, &apos;Segoe UI&apos;, Inter, system-ui, sans-serif" font-size="11" fill="#64748b">10 fields</text></g><g transform="translate(1050,310)"><rect x="0" y="0" width="200" height="65" rx="12" fill="#ffffff" stroke="#d8dee8" stroke-width="1.5" filter="url(#card-shadow)"/><g transform="translate(12,12.5) scale(0.63)" fill="none" stroke="#94a3b8" stroke-width="2" stroke-linecap="round" stroke-linejoin="round"><path d="M21 8a2 2 0 0 0-1-1.73l-7-4a2 2 0 0 0-2 0l-7 4A2 2 0 0 0 3 8v8a2 2 0 0 0 1 1.73l7 4a2 2 0 0 0 2 0l7-4A2 2 0 0 0 21 16Z"/><path d="m3.3 7 8.7 5 8.7-5"/><path d="M12 22V12"/></g><text x="35" y="24.73" font-family="-apple-system, BlinkMacSystemFont, &apos;Segoe UI&apos;, Inter, system-ui, sans-serif" font-size="13.5" font-weight="600" fill="#0f172a">Patient</text><text x="12" y="49.35" font-family="-apple-system, BlinkMacSystemFont, &apos;Segoe UI&apos;, Inter, system-ui, sans-serif" font-size="11" fill="#64748b">7 fields</text></g><g transform="translate(350,327.8)"><rect x="0" y="0" width="200" height="65" rx="12" fill="#ffffff" stroke="#d8dee8" stroke-width="1.5" filter="url(#card-shadow)"/><g transform="translate(12,12.5) scale(0.63)" fill="none" stroke="#94a3b8" stroke-width="2" stroke-linecap="round" stroke-linejoin="round"><path d="M21 8a2 2 0 0 0-1-1.73l-7-4a2 2 0 0 0-2 0l-7 4A2 2 0 0 0 3 8v8a2 2 0 0 0 1 1.73l7 4a2 2 0 0 0 2 0l7-4A2 2 0 0 0 21 16Z"/><path d="m3.3 7 8.7 5 8.7-5"/><path d="M12 22V12"/></g><text x="35" y="24.73" font-family="-apple-system, BlinkMacSystemFont, &apos;Segoe UI&apos;, Inter, system-ui, sans-serif" font-size="13.5" font-weight="600" fill="#0f172a">Payer</text><text x="12" y="49.35" font-family="-apple-system, BlinkMacSystemFont, &apos;Segoe UI&apos;, Inter, system-ui, sans-serif" font-size="11" fill="#64748b">3 fields</text></g><g transform="translate(1050,160)"><rect x="0" y="0" width="200" height="65" rx="12" fill="#ffffff" stroke="#d8dee8" stroke-width="1.5" filter="url(#card-shadow)"/><g transform="translate(12,12.5) scale(0.63)" fill="none" stroke="#94a3b8" stroke-width="2" stroke-linecap="round" stroke-linejoin="round"><path d="M21 8a2 2 0 0 0-1-1.73l-7-4a2 2 0 0 0-2 0l-7 4A2 2 0 0 0 3 8v8a2 2 0 0 0 1 1.73l7 4a2 2 0 0 0 2 0l7-4A2 2 0 0 0 21 16Z"/><path d="m3.3 7 8.7 5 8.7-5"/><path d="M12 22V12"/></g><text x="35" y="24.73" font-family="-apple-system, BlinkMacSystemFont, &apos;Segoe UI&apos;, Inter, system-ui, sans-serif" font-size="13.5" font-weight="600" fill="#0f172a">Provider</text><text x="12" y="49.35" font-family="-apple-system, BlinkMacSystemFont, &apos;Segoe UI&apos;, Inter, system-ui, sans-serif" font-size="11" fill="#64748b">5 fields</text></g></g><g transform="translate(1332,467)" opacity="0.92"><defs><linearGradient id="wmg0" x1="0" y1="0" x2="1" y2="1"><stop stop-color="#05D2FF"/><stop offset=".4" stop-color="#1E88E5"/><stop offset="1" stop-color="#182FFF"/></linearGradient><linearGradient id="wmg1" x1="0" y1="1" x2="1" y2="0"><stop stop-color="#24D8FF"/><stop offset=".4" stop-color="#1E88E5"/><stop offset="1" stop-color="#0046F9"/></linearGradient></defs><g transform="scale(0.046875)"><path d="M421.311 119.85C435.258 133.807 440.996 157.327 440.996 157.327C440.996 157.327 449.53 204.69 449.53 268.995C449.53 177.972 418.65 162.348 311.314 162.348H212.327C157.38 162.348 161.097 217.57 157.38 243.85L152.865 283.556C150.697 325.33 157.951 351.215 200.811 351.215C111.444 351.215 61.806 365.847 61.8062 239.866C61.8061 182.846 70.4043 157.327 70.4043 157.327C70.4043 157.327 76.1419 133.807 90.1183 119.85C104.095 105.877 124.809 104.475 124.809 104.475C124.809 104.475 167.579 98.0374 252.066 98.0374C336.554 98.0374 384.285 104.475 384.285 104.475C384.285 104.475 407.321 105.877 421.311 119.85Z" fill="url(#wmg0)"/><path d="M449.515 271.888C449.52 273.026 449.523 274.174 449.523 275.333C449.523 329.946 441.393 351.201 441.393 351.201C441.393 351.201 435.03 376.952 424.167 388.075C406.929 405.725 388.495 406.71 388.495 406.71C388.495 406.71 348.836 413.061 263.502 413.061C181.632 413.061 127.111 406.749 127.111 406.749C127.111 406.749 104.091 405.337 90.1144 391.377C76.1379 377.394 70.4004 351.201 70.4004 351.201C70.4004 351.201 61.8062 297.401 61.8062 238.506C61.806 352.055 102.131 351.374 175.525 350.133C183.56 349.998 191.992 349.855 200.811 349.855H299.787C343.122 349.855 352.906 318.315 354.792 282.196L359.32 227.093C360.526 204.443 357.608 188.362 350.507 178.012C342.765 166.722 329.575 160.987 311.314 160.987C424.974 160.987 448.73 176.216 449.515 271.888Z" fill="url(#wmg1)"/></g></g></svg>