<svg xmlns="http://www.w3.org/2000/svg" width="1048" height="370" viewBox="0 0 1048 370" role="img" aria-labelledby="t">
<title id="t">Marketing Leadgen data model — 8 data marts, 10 relationships</title>
<rect width="1048" height="370" rx="16" fill="#ffffff"/>
<path d="M488 141 C 520.22 141, 520.22 131, 552.44 131" fill="none" stroke="#0b63b8" stroke-width="2" stroke-linecap="round"/><path d="M552.44 125.6L560 131L552.44 136.4Z" fill="#0b63b8"/><path d="M756 275 C 788.22 275, 788.22 275, 820.44 275" fill="none" stroke="#0b63b8" stroke-width="2" stroke-linecap="round"/><path d="M820.44 269.6L828 275L820.44 280.4Z" fill="#0b63b8"/><path d="M488 313 C 654.22 313, 654.22 275, 820.44 275" fill="none" stroke="#0b63b8" stroke-width="2" stroke-linecap="round"/><path d="M820.44 269.6L828 275L820.44 280.4Z" fill="#0b63b8"/><path d="M488 313 C 520.22 313, 520.22 131, 552.44 131" fill="none" stroke="#0b63b8" stroke-width="2" stroke-linecap="round"/><path d="M552.44 125.6L560 131L552.44 136.4Z" fill="#0b63b8"/><path d="M488 313 C 520.22 313, 520.22 275, 552.44 275" fill="none" stroke="#0b63b8" stroke-width="2" stroke-linecap="round"/><path d="M552.44 269.6L560 275L552.44 280.4Z" fill="#0b63b8"/><path d="M220 313 C 252.22 313, 252.22 313, 284.44 313" fill="none" stroke="#0b63b8" stroke-width="2" stroke-linecap="round"/><path d="M284.44 307.6L292 313L284.44 318.4Z" fill="#0b63b8"/><path d="M488 229 C 520.22 229, 520.22 131, 552.44 131" fill="none" stroke="#0b63b8" stroke-width="2" stroke-linecap="round"/><path d="M552.44 125.6L560 131L552.44 136.4Z" fill="#0b63b8"/><path d="M488 229 C 520.22 229, 520.22 275, 552.44 275" fill="none" stroke="#0b63b8" stroke-width="2" stroke-linecap="round"/><path d="M552.44 269.6L560 275L552.44 280.4Z" fill="#0b63b8"/><path d="M488 57 C 520.22 57, 520.22 131, 552.44 131" fill="none" stroke="#0b63b8" stroke-width="2" stroke-linecap="round"/><path d="M552.44 125.6L560 131L552.44 136.4Z" fill="#0b63b8"/><path d="M488 57 C 520.22 57, 520.22 275, 552.44 275" fill="none" stroke="#0b63b8" stroke-width="2" stroke-linecap="round"/><path d="M552.44 269.6L560 275L552.44 280.4Z" fill="#0b63b8"/>
<g><title>Account</title><rect x="828.5" y="242.5" width="195" height="65" rx="10" fill="#ffffff" fill-opacity="0.8" stroke="#d1d9e6" stroke-width="1"/><g transform="translate(840 254) scale(0.67)" fill="none" stroke="#1a1f2e" stroke-width="2.63" stroke-linecap="round" stroke-linejoin="round" color="#1a1f2e"><path d="M16 21v-2a4 4 0 0 0-4-4H6a4 4 0 0 0-4 4v2"/><path d="M16 3.128a4 4 0 0 1 0 7.744"/><path d="M22 21v-2a4 4 0 0 0-3-3.87"/><circle cx="9" cy="7" r="4"/></g><text x="867" y="262" font-family="Roboto, -apple-system, BlinkMacSystemFont, 'Segoe UI', Helvetica, Arial, sans-serif" font-size="13" font-weight="500" fill="#1a1f2e" dominant-baseline="central" textLength="48.38" lengthAdjust="spacingAndGlyphs">Account</text><rect x="840" y="278" width="62.85" height="18" rx="6" fill="#edf1f8"/><g transform="translate(846 281) scale(0.5)" fill="none" stroke="#5e6b85" stroke-width="3.2" stroke-linecap="round" stroke-linejoin="round" color="#5e6b85"><rect width="18" height="18" x="3" y="3" rx="2"/><path d="M9 3v18"/><path d="M15 3v18"/></g><text x="862" y="287" font-family="Roboto, -apple-system, BlinkMacSystemFont, 'Segoe UI', Helvetica, Arial, sans-serif" font-size="11" fill="#5e6b85" dominant-baseline="central" textLength="34.85" lengthAdjust="spacingAndGlyphs">6 fields</text><rect x="906.85" y="278" width="98.92" height="18" rx="6" fill="#edf1f8"/><g transform="translate(912.85 281) scale(0.5)" fill="none" stroke="#5e6b85" stroke-width="3.2" stroke-linecap="round" stroke-linejoin="round" color="#5e6b85"><path d="m10.586 5.414-5.172 5.172"/><path d="m18.586 13.414-5.172 5.172"/><path d="M6 12h12"/><circle cx="12" cy="20" r="2"/><circle cx="12" cy="4" r="2"/><circle cx="20" cy="12" r="2"/><circle cx="4" cy="12" r="2"/></g><text x="928.85" y="287" font-family="Roboto, -apple-system, BlinkMacSystemFont, 'Segoe UI', Helvetica, Arial, sans-serif" font-size="11" fill="#5e6b85" dominant-baseline="central" textLength="70.92" lengthAdjust="spacingAndGlyphs">2 relationships</text></g><g><title>Ad Spend</title><rect x="292.5" y="108.5" width="195" height="65" rx="10" fill="#ffffff" fill-opacity="0.8" stroke="#d1d9e6" stroke-width="1"/><g transform="translate(304 120) scale(0.67)" fill="none" stroke="#1a1f2e" stroke-width="2.63" stroke-linecap="round" stroke-linejoin="round" color="#1a1f2e"><rect width="20" height="12" x="2" y="6" rx="2"/><circle cx="12" cy="12" r="2"/><path d="M6 12h.01M18 12h.01"/></g><text x="331" y="128" font-family="Roboto, -apple-system, BlinkMacSystemFont, 'Segoe UI', Helvetica, Arial, sans-serif" font-size="13" font-weight="500" fill="#1a1f2e" dominant-baseline="central" textLength="58.81" lengthAdjust="spacingAndGlyphs">Ad Spend</text><rect x="304" y="144" width="62.85" height="18" rx="6" fill="#edf1f8"/><g transform="translate(310 147) scale(0.5)" fill="none" stroke="#5e6b85" stroke-width="3.2" stroke-linecap="round" stroke-linejoin="round" color="#5e6b85"><rect width="18" height="18" x="3" y="3" rx="2"/><path d="M9 3v18"/><path d="M15 3v18"/></g><text x="326" y="153" font-family="Roboto, -apple-system, BlinkMacSystemFont, 'Segoe UI', Helvetica, Arial, sans-serif" font-size="11" fill="#5e6b85" dominant-baseline="central" textLength="34.85" lengthAdjust="spacingAndGlyphs">8 fields</text><rect x="370.85" y="144" width="93.42" height="18" rx="6" fill="#edf1f8"/><g transform="translate(376.85 147) scale(0.5)" fill="none" stroke="#5e6b85" stroke-width="3.2" stroke-linecap="round" stroke-linejoin="round" color="#5e6b85"><path d="m10.586 5.414-5.172 5.172"/><path d="m18.586 13.414-5.172 5.172"/><path d="M6 12h12"/><circle cx="12" cy="20" r="2"/><circle cx="12" cy="4" r="2"/><circle cx="20" cy="12" r="2"/><circle cx="4" cy="12" r="2"/></g><text x="392.85" y="153" font-family="Roboto, -apple-system, BlinkMacSystemFont, 'Segoe UI', Helvetica, Arial, sans-serif" font-size="11" fill="#5e6b85" dominant-baseline="central" textLength="65.42" lengthAdjust="spacingAndGlyphs">1 relationship</text></g><g><title>Campaign</title><rect x="560.5" y="98.5" width="195" height="65" rx="10" fill="#ffffff" fill-opacity="0.8" stroke="#d1d9e6" stroke-width="1"/><g transform="translate(572 110) scale(0.67)" fill="none" stroke="#1a1f2e" stroke-width="2.63" stroke-linecap="round" stroke-linejoin="round" color="#1a1f2e"><path d="m3 11 18-5v12L3 14v-3z"/><path d="M11.6 16.8a3 3 0 1 1-5.8-1.6"/></g><text x="599" y="118" font-family="Roboto, -apple-system, BlinkMacSystemFont, 'Segoe UI', Helvetica, Arial, sans-serif" font-size="13" font-weight="500" fill="#1a1f2e" dominant-baseline="central" textLength="61.02" lengthAdjust="spacingAndGlyphs">Campaign</text><rect x="572" y="134" width="62.85" height="18" rx="6" fill="#edf1f8"/><g transform="translate(578 137) scale(0.5)" fill="none" stroke="#5e6b85" stroke-width="3.2" stroke-linecap="round" stroke-linejoin="round" color="#5e6b85"><rect width="18" height="18" x="3" y="3" rx="2"/><path d="M9 3v18"/><path d="M15 3v18"/></g><text x="594" y="143" font-family="Roboto, -apple-system, BlinkMacSystemFont, 'Segoe UI', Helvetica, Arial, sans-serif" font-size="11" fill="#5e6b85" dominant-baseline="central" textLength="34.85" lengthAdjust="spacingAndGlyphs">9 fields</text><rect x="638.85" y="134" width="98.92" height="18" rx="6" fill="#edf1f8"/><g transform="translate(644.85 137) scale(0.5)" fill="none" stroke="#5e6b85" stroke-width="3.2" stroke-linecap="round" stroke-linejoin="round" color="#5e6b85"><path d="m10.586 5.414-5.172 5.172"/><path d="m18.586 13.414-5.172 5.172"/><path d="M6 12h12"/><circle cx="12" cy="20" r="2"/><circle cx="12" cy="4" r="2"/><circle cx="20" cy="12" r="2"/><circle cx="4" cy="12" r="2"/></g><text x="660.85" y="143" font-family="Roboto, -apple-system, BlinkMacSystemFont, 'Segoe UI', Helvetica, Arial, sans-serif" font-size="11" fill="#5e6b85" dominant-baseline="central" textLength="70.92" lengthAdjust="spacingAndGlyphs">4 relationships</text></g><g><title>Lead</title><rect x="560.5" y="242.5" width="195" height="65" rx="10" fill="#ffffff" fill-opacity="0.8" stroke="#d1d9e6" stroke-width="1"/><g transform="translate(572 254) scale(0.67)" fill="none" stroke="#1a1f2e" stroke-width="2.63" stroke-linecap="round" stroke-linejoin="round" color="#1a1f2e"><circle cx="12" cy="8" r="5"/><path d="M20 21a8 8 0 0 0-16 0"/></g><text x="599" y="262" font-family="Roboto, -apple-system, BlinkMacSystemFont, 'Segoe UI', Helvetica, Arial, sans-serif" font-size="13" font-weight="500" fill="#1a1f2e" dominant-baseline="central" textLength="29.78" lengthAdjust="spacingAndGlyphs">Lead</text><rect x="572" y="278" width="68.96" height="18" rx="6" fill="#edf1f8"/><g transform="translate(578 281) scale(0.5)" fill="none" stroke="#5e6b85" stroke-width="3.2" stroke-linecap="round" stroke-linejoin="round" color="#5e6b85"><rect width="18" height="18" x="3" y="3" rx="2"/><path d="M9 3v18"/><path d="M15 3v18"/></g><text x="594" y="287" font-family="Roboto, -apple-system, BlinkMacSystemFont, 'Segoe UI', Helvetica, Arial, sans-serif" font-size="11" fill="#5e6b85" dominant-baseline="central" textLength="40.96" lengthAdjust="spacingAndGlyphs">11 fields</text><rect x="644.96" y="278" width="98.92" height="18" rx="6" fill="#edf1f8"/><g transform="translate(650.96 281) scale(0.5)" fill="none" stroke="#5e6b85" stroke-width="3.2" stroke-linecap="round" stroke-linejoin="round" color="#5e6b85"><path d="m10.586 5.414-5.172 5.172"/><path d="m18.586 13.414-5.172 5.172"/><path d="M6 12h12"/><circle cx="12" cy="20" r="2"/><circle cx="12" cy="4" r="2"/><circle cx="20" cy="12" r="2"/><circle cx="4" cy="12" r="2"/></g><text x="666.96" y="287" font-family="Roboto, -apple-system, BlinkMacSystemFont, 'Segoe UI', Helvetica, Arial, sans-serif" font-size="11" fill="#5e6b85" dominant-baseline="central" textLength="70.92" lengthAdjust="spacingAndGlyphs">4 relationships</text></g><g><title>Opportunities</title><rect x="292.5" y="280.5" width="195" height="65" rx="10" fill="#ffffff" fill-opacity="0.8" stroke="#d1d9e6" stroke-width="1"/><g transform="translate(304 292) scale(0.67)" fill="none" stroke="#1a1f2e" stroke-width="2.63" stroke-linecap="round" stroke-linejoin="round" color="#1a1f2e"><path d="M21 8a2 2 0 0 0-1-1.73l-7-4a2 2 0 0 0-2 0l-7 4A2 2 0 0 0 3 8v8a2 2 0 0 0 1 1.73l7 4a2 2 0 0 0 2 0l7-4A2 2 0 0 0 21 16Z"/><path d="m3.3 7 8.7 5 8.7-5"/><path d="M12 22V12"/></g><text x="331" y="300" font-family="Roboto, -apple-system, BlinkMacSystemFont, 'Segoe UI', Helvetica, Arial, sans-serif" font-size="13" font-weight="500" fill="#1a1f2e" dominant-baseline="central" textLength="79.63" lengthAdjust="spacingAndGlyphs">Opportunities</text><rect x="304" y="316" width="68.96" height="18" rx="6" fill="#edf1f8"/><g transform="translate(310 319) scale(0.5)" fill="none" stroke="#5e6b85" stroke-width="3.2" stroke-linecap="round" stroke-linejoin="round" color="#5e6b85"><rect width="18" height="18" x="3" y="3" rx="2"/><path d="M9 3v18"/><path d="M15 3v18"/></g><text x="326" y="325" font-family="Roboto, -apple-system, BlinkMacSystemFont, 'Segoe UI', Helvetica, Arial, sans-serif" font-size="11" fill="#5e6b85" dominant-baseline="central" textLength="40.96" lengthAdjust="spacingAndGlyphs">11 fields</text><rect x="376.96" y="316" width="98.92" height="18" rx="6" fill="#edf1f8"/><g transform="translate(382.96 319) scale(0.5)" fill="none" stroke="#5e6b85" stroke-width="3.2" stroke-linecap="round" stroke-linejoin="round" color="#5e6b85"><path d="m10.586 5.414-5.172 5.172"/><path d="m18.586 13.414-5.172 5.172"/><path d="M6 12h12"/><circle cx="12" cy="20" r="2"/><circle cx="12" cy="4" r="2"/><circle cx="20" cy="12" r="2"/><circle cx="4" cy="12" r="2"/></g><text x="398.96" y="325" font-family="Roboto, -apple-system, BlinkMacSystemFont, 'Segoe UI', Helvetica, Arial, sans-serif" font-size="11" fill="#5e6b85" dominant-baseline="central" textLength="70.92" lengthAdjust="spacingAndGlyphs">4 relationships</text></g><g><title>Stage Transitions</title><rect x="24.5" y="280.5" width="195" height="65" rx="10" fill="#ffffff" fill-opacity="0.8" stroke="#d1d9e6" stroke-width="1"/><g transform="translate(36 292) scale(0.67)" fill="none" stroke="#1a1f2e" stroke-width="2.63" stroke-linecap="round" stroke-linejoin="round" color="#1a1f2e"><path d="M21 8a2 2 0 0 0-1-1.73l-7-4a2 2 0 0 0-2 0l-7 4A2 2 0 0 0 3 8v8a2 2 0 0 0 1 1.73l7 4a2 2 0 0 0 2 0l7-4A2 2 0 0 0 21 16Z"/><path d="m3.3 7 8.7 5 8.7-5"/><path d="M12 22V12"/></g><text x="63" y="300" font-family="Roboto, -apple-system, BlinkMacSystemFont, 'Segoe UI', Helvetica, Arial, sans-serif" font-size="13" font-weight="500" fill="#1a1f2e" dominant-baseline="central" textLength="104.19" lengthAdjust="spacingAndGlyphs">Stage Transitions</text><rect x="36" y="316" width="62.85" height="18" rx="6" fill="#edf1f8"/><g transform="translate(42 319) scale(0.5)" fill="none" stroke="#5e6b85" stroke-width="3.2" stroke-linecap="round" stroke-linejoin="round" color="#5e6b85"><rect width="18" height="18" x="3" y="3" rx="2"/><path d="M9 3v18"/><path d="M15 3v18"/></g><text x="58" y="325" font-family="Roboto, -apple-system, BlinkMacSystemFont, 'Segoe UI', Helvetica, Arial, sans-serif" font-size="11" fill="#5e6b85" dominant-baseline="central" textLength="34.85" lengthAdjust="spacingAndGlyphs">6 fields</text><rect x="102.85" y="316" width="93.42" height="18" rx="6" fill="#edf1f8"/><g transform="translate(108.85 319) scale(0.5)" fill="none" stroke="#5e6b85" stroke-width="3.2" stroke-linecap="round" stroke-linejoin="round" color="#5e6b85"><path d="m10.586 5.414-5.172 5.172"/><path d="m18.586 13.414-5.172 5.172"/><path d="M6 12h12"/><circle cx="12" cy="20" r="2"/><circle cx="12" cy="4" r="2"/><circle cx="20" cy="12" r="2"/><circle cx="4" cy="12" r="2"/></g><text x="124.85" y="325" font-family="Roboto, -apple-system, BlinkMacSystemFont, 'Segoe UI', Helvetica, Arial, sans-serif" font-size="11" fill="#5e6b85" dominant-baseline="central" textLength="65.42" lengthAdjust="spacingAndGlyphs">1 relationship</text></g><g><title>Touchpoints</title><rect x="292.5" y="196.5" width="195" height="65" rx="10" fill="#ffffff" fill-opacity="0.8" stroke="#d1d9e6" stroke-width="1"/><g transform="translate(304 208) scale(0.67)" fill="none" stroke="#1a1f2e" stroke-width="2.63" stroke-linecap="round" stroke-linejoin="round" color="#1a1f2e"><path d="M21 8a2 2 0 0 0-1-1.73l-7-4a2 2 0 0 0-2 0l-7 4A2 2 0 0 0 3 8v8a2 2 0 0 0 1 1.73l7 4a2 2 0 0 0 2 0l7-4A2 2 0 0 0 21 16Z"/><path d="m3.3 7 8.7 5 8.7-5"/><path d="M12 22V12"/></g><text x="331" y="216" font-family="Roboto, -apple-system, BlinkMacSystemFont, 'Segoe UI', Helvetica, Arial, sans-serif" font-size="13" font-weight="500" fill="#1a1f2e" dominant-baseline="central" textLength="72.94" lengthAdjust="spacingAndGlyphs">Touchpoints</text><rect x="304" y="232" width="68.96" height="18" rx="6" fill="#edf1f8"/><g transform="translate(310 235) scale(0.5)" fill="none" stroke="#5e6b85" stroke-width="3.2" stroke-linecap="round" stroke-linejoin="round" color="#5e6b85"><rect width="18" height="18" x="3" y="3" rx="2"/><path d="M9 3v18"/><path d="M15 3v18"/></g><text x="326" y="241" font-family="Roboto, -apple-system, BlinkMacSystemFont, 'Segoe UI', Helvetica, Arial, sans-serif" font-size="11" fill="#5e6b85" dominant-baseline="central" textLength="40.96" lengthAdjust="spacingAndGlyphs">10 fields</text><rect x="376.96" y="232" width="98.92" height="18" rx="6" fill="#edf1f8"/><g transform="translate(382.96 235) scale(0.5)" fill="none" stroke="#5e6b85" stroke-width="3.2" stroke-linecap="round" stroke-linejoin="round" color="#5e6b85"><path d="m10.586 5.414-5.172 5.172"/><path d="m18.586 13.414-5.172 5.172"/><path d="M6 12h12"/><circle cx="12" cy="20" r="2"/><circle cx="12" cy="4" r="2"/><circle cx="20" cy="12" r="2"/><circle cx="4" cy="12" r="2"/></g><text x="398.96" y="241" font-family="Roboto, -apple-system, BlinkMacSystemFont, 'Segoe UI', Helvetica, Arial, sans-serif" font-size="11" fill="#5e6b85" dominant-baseline="central" textLength="70.92" lengthAdjust="spacingAndGlyphs">2 relationships</text></g><g><title>Web Sessions</title><rect x="292.5" y="24.5" width="195" height="65" rx="10" fill="#ffffff" fill-opacity="0.8" stroke="#d1d9e6" stroke-width="1"/><g transform="translate(304 36) scale(0.67)" fill="none" stroke="#1a1f2e" stroke-width="2.63" stroke-linecap="round" stroke-linejoin="round" color="#1a1f2e"><path d="M14 4.1 12 6"/><path d="m5.1 8-2.9-.8"/><path d="m6 12-1.9 2"/><path d="M7.2 2.2 8 5.1"/><path d="M9.037 9.69a.498.498 0 0 1 .653-.653l11 4.5a.5.5 0 0 1-.074.949l-4.349 1.041a1 1 0 0 0-.74.739l-1.04 4.35a.5.5 0 0 1-.95.074z"/></g><text x="331" y="44" font-family="Roboto, -apple-system, BlinkMacSystemFont, 'Segoe UI', Helvetica, Arial, sans-serif" font-size="13" font-weight="500" fill="#1a1f2e" dominant-baseline="central" textLength="85.58" lengthAdjust="spacingAndGlyphs">Web Sessions</text><rect x="304" y="60" width="62.85" height="18" rx="6" fill="#edf1f8"/><g transform="translate(310 63) scale(0.5)" fill="none" stroke="#5e6b85" stroke-width="3.2" stroke-linecap="round" stroke-linejoin="round" color="#5e6b85"><rect width="18" height="18" x="3" y="3" rx="2"/><path d="M9 3v18"/><path d="M15 3v18"/></g><text x="326" y="69" font-family="Roboto, -apple-system, BlinkMacSystemFont, 'Segoe UI', Helvetica, Arial, sans-serif" font-size="11" fill="#5e6b85" dominant-baseline="central" textLength="34.85" lengthAdjust="spacingAndGlyphs">9 fields</text><rect x="370.85" y="60" width="98.92" height="18" rx="6" fill="#edf1f8"/><g transform="translate(376.85 63) scale(0.5)" fill="none" stroke="#5e6b85" stroke-width="3.2" stroke-linecap="round" stroke-linejoin="round" color="#5e6b85"><path d="m10.586 5.414-5.172 5.172"/><path d="m18.586 13.414-5.172 5.172"/><path d="M6 12h12"/><circle cx="12" cy="20" r="2"/><circle cx="12" cy="4" r="2"/><circle cx="20" cy="12" r="2"/><circle cx="4" cy="12" r="2"/></g><text x="392.85" y="69" font-family="Roboto, -apple-system, BlinkMacSystemFont, 'Segoe UI', Helvetica, Arial, sans-serif" font-size="11" fill="#5e6b85" dominant-baseline="central" textLength="70.92" lengthAdjust="spacingAndGlyphs">2 relationships</text></g>
</svg>
