<svg xmlns="http://www.w3.org/2000/svg" width="1048" height="614" viewBox="0 0 1048 614" role="img" aria-labelledby="t">
<title id="t">Retail Chain data model — 10 data marts, 18 relationships</title>
<rect width="1048" height="614" rx="16" fill="#ffffff"/>
<path d="M756 557 C 788.22 557, 788.22 255, 820.44 255" fill="none" stroke="#0b63b8" stroke-width="2" stroke-linecap="round"/><path d="M820.44 249.6L828 255L820.44 260.4Z" fill="#0b63b8"/><path d="M756 557 C 788.22 557, 788.22 171, 820.44 171" fill="none" stroke="#0b63b8" stroke-width="2" stroke-linecap="round"/><path d="M820.44 165.6L828 171L820.44 176.4Z" fill="#0b63b8"/><path d="M756 463 C 788.22 463, 788.22 171, 820.44 171" fill="none" stroke="#0b63b8" stroke-width="2" stroke-linecap="round"/><path d="M820.44 165.6L828 171L820.44 176.4Z" fill="#0b63b8"/><path d="M488 387 C 520.22 387, 520.22 557, 552.44 557" fill="none" stroke="#0b63b8" stroke-width="2" stroke-linecap="round"/><path d="M552.44 551.6L560 557L552.44 562.4Z" fill="#0b63b8"/><path d="M488 387 C 520.22 387, 520.22 463, 552.44 463" fill="none" stroke="#0b63b8" stroke-width="2" stroke-linecap="round"/><path d="M552.44 457.6L560 463L552.44 468.4Z" fill="#0b63b8"/><path d="M488 387 C 654.22 387, 654.22 255, 820.44 255" fill="none" stroke="#0b63b8" stroke-width="2" stroke-linecap="round"/><path d="M820.44 249.6L828 255L820.44 260.4Z" fill="#0b63b8"/><path d="M488 387 C 520.22 387, 520.22 355, 552.44 355" fill="none" stroke="#0b63b8" stroke-width="2" stroke-linecap="round"/><path d="M552.44 349.6L560 355L552.44 360.4Z" fill="#0b63b8"/><path d="M488 387 C 654.22 387, 654.22 171, 820.44 171" fill="none" stroke="#0b63b8" stroke-width="2" stroke-linecap="round"/><path d="M820.44 165.6L828 171L820.44 176.4Z" fill="#0b63b8"/><path d="M488 387 C 520.22 387, 520.22 57, 552.44 57" fill="none" stroke="#0b63b8" stroke-width="2" stroke-linecap="round"/><path d="M552.44 51.6L560 57L552.44 62.4Z" fill="#0b63b8"/><path d="M756 141 C 788.22 141, 788.22 255, 820.44 255" fill="none" stroke="#0b63b8" stroke-width="2" stroke-linecap="round"/><path d="M820.44 249.6L828 255L820.44 260.4Z" fill="#0b63b8"/><path d="M756 141 C 788.22 141, 788.22 171, 820.44 171" fill="none" stroke="#0b63b8" stroke-width="2" stroke-linecap="round"/><path d="M820.44 165.6L828 171L820.44 176.4Z" fill="#0b63b8"/><path d="M220 225 C 386.22 225, 386.22 463, 552.44 463" fill="none" stroke="#0b63b8" stroke-width="2" stroke-linecap="round"/><path d="M552.44 457.6L560 463L552.44 468.4Z" fill="#0b63b8"/><path d="M220 225 C 252.22 225, 252.22 387, 284.44 387" fill="none" stroke="#0b63b8" stroke-width="2" stroke-linecap="round"/><path d="M284.44 381.6L292 387L284.44 392.4Z" fill="#0b63b8"/><path d="M220 225 C 520.22 225, 520.22 255, 820.44 255" fill="none" stroke="#0b63b8" stroke-width="2" stroke-linecap="round"/><path d="M820.44 249.6L828 255L820.44 260.4Z" fill="#0b63b8"/><path d="M220 225 C 520.22 225, 520.22 171, 820.44 171" fill="none" stroke="#0b63b8" stroke-width="2" stroke-linecap="round"/><path d="M820.44 165.6L828 171L820.44 176.4Z" fill="#0b63b8"/><path d="M756 225 C 788.22 225, 788.22 255, 820.44 255" fill="none" stroke="#0b63b8" stroke-width="2" stroke-linecap="round"/><path d="M820.44 249.6L828 255L820.44 260.4Z" fill="#0b63b8"/><path d="M756 225 C 788.22 225, 788.22 171, 820.44 171" fill="none" stroke="#0b63b8" stroke-width="2" stroke-linecap="round"/><path d="M820.44 165.6L828 171L820.44 176.4Z" fill="#0b63b8"/><path d="M756 57 C 788.22 57, 788.22 171, 820.44 171" fill="none" stroke="#0b63b8" stroke-width="2" stroke-linecap="round"/><path d="M820.44 165.6L828 171L820.44 176.4Z" fill="#0b63b8"/>
<g><title>Inventory (daily)</title><rect x="560.5" y="524.5" width="195" height="65" rx="10" fill="#ffffff" fill-opacity="0.8" stroke="#d1d9e6" stroke-width="1"/><g transform="translate(572 536) scale(0.67)" fill="none" stroke="#1a1f2e" stroke-width="2.63" stroke-linecap="round" stroke-linejoin="round" color="#1a1f2e"><path d="M21 8a2 2 0 0 0-1-1.73l-7-4a2 2 0 0 0-2 0l-7 4A2 2 0 0 0 3 8v8a2 2 0 0 0 1 1.73l7 4a2 2 0 0 0 2 0l7-4A2 2 0 0 0 21 16Z"/><path d="m3.3 7 8.7 5 8.7-5"/><path d="M12 22V12"/></g><text x="599" y="544" font-family="Roboto, -apple-system, BlinkMacSystemFont, 'Segoe UI', Helvetica, Arial, sans-serif" font-size="13" font-weight="500" fill="#1a1f2e" dominant-baseline="central" textLength="95.24" lengthAdjust="spacingAndGlyphs">Inventory (daily)</text><rect x="572" y="560" width="68.96" height="18" rx="6" fill="#edf1f8"/><g transform="translate(578 563) scale(0.5)" fill="none" stroke="#5e6b85" stroke-width="3.2" stroke-linecap="round" stroke-linejoin="round" color="#5e6b85"><rect width="18" height="18" x="3" y="3" rx="2"/><path d="M9 3v18"/><path d="M15 3v18"/></g><text x="594" y="569" font-family="Roboto, -apple-system, BlinkMacSystemFont, 'Segoe UI', Helvetica, Arial, sans-serif" font-size="11" fill="#5e6b85" dominant-baseline="central" textLength="40.96" lengthAdjust="spacingAndGlyphs">10 fields</text><rect x="644.96" y="560" width="98.92" height="18" rx="6" fill="#edf1f8"/><g transform="translate(650.96 563) scale(0.5)" fill="none" stroke="#5e6b85" stroke-width="3.2" stroke-linecap="round" stroke-linejoin="round" color="#5e6b85"><path d="m10.586 5.414-5.172 5.172"/><path d="m18.586 13.414-5.172 5.172"/><path d="M6 12h12"/><circle cx="12" cy="20" r="2"/><circle cx="12" cy="4" r="2"/><circle cx="20" cy="12" r="2"/><circle cx="4" cy="12" r="2"/></g><text x="666.96" y="569" font-family="Roboto, -apple-system, BlinkMacSystemFont, 'Segoe UI', Helvetica, Arial, sans-serif" font-size="11" fill="#5e6b85" dominant-baseline="central" textLength="70.92" lengthAdjust="spacingAndGlyphs">3 relationships</text></g><g><title>Loyalty Members</title><rect x="560.5" y="430.5" width="195" height="65" rx="10" fill="#ffffff" fill-opacity="0.8" stroke="#d1d9e6" stroke-width="1"/><g transform="translate(572 442) scale(0.67)" fill="none" stroke="#1a1f2e" stroke-width="2.63" stroke-linecap="round" stroke-linejoin="round" color="#1a1f2e"><path d="M16 21v-2a4 4 0 0 0-4-4H6a4 4 0 0 0-4 4v2"/><path d="M16 3.128a4 4 0 0 1 0 7.744"/><path d="M22 21v-2a4 4 0 0 0-3-3.87"/><circle cx="9" cy="7" r="4"/></g><text x="599" y="450" font-family="Roboto, -apple-system, BlinkMacSystemFont, 'Segoe UI', Helvetica, Arial, sans-serif" font-size="13" font-weight="500" fill="#1a1f2e" dominant-baseline="central" textLength="101.94" lengthAdjust="spacingAndGlyphs">Loyalty Members</text><rect x="572" y="466" width="68.96" height="18" rx="6" fill="#edf1f8"/><g transform="translate(578 469) scale(0.5)" fill="none" stroke="#5e6b85" stroke-width="3.2" stroke-linecap="round" stroke-linejoin="round" color="#5e6b85"><rect width="18" height="18" x="3" y="3" rx="2"/><path d="M9 3v18"/><path d="M15 3v18"/></g><text x="594" y="475" font-family="Roboto, -apple-system, BlinkMacSystemFont, 'Segoe UI', Helvetica, Arial, sans-serif" font-size="11" fill="#5e6b85" dominant-baseline="central" textLength="40.96" lengthAdjust="spacingAndGlyphs">21 fields</text><rect x="644.96" y="466" width="98.92" height="18" rx="6" fill="#edf1f8"/><g transform="translate(650.96 469) scale(0.5)" fill="none" stroke="#5e6b85" stroke-width="3.2" stroke-linecap="round" stroke-linejoin="round" color="#5e6b85"><path d="m10.586 5.414-5.172 5.172"/><path d="m18.586 13.414-5.172 5.172"/><path d="M6 12h12"/><circle cx="12" cy="20" r="2"/><circle cx="12" cy="4" r="2"/><circle cx="20" cy="12" r="2"/><circle cx="4" cy="12" r="2"/></g><text x="666.96" y="475" font-family="Roboto, -apple-system, BlinkMacSystemFont, 'Segoe UI', Helvetica, Arial, sans-serif" font-size="11" fill="#5e6b85" dominant-baseline="central" textLength="70.92" lengthAdjust="spacingAndGlyphs">3 relationships</text></g><g><title>POS Sales</title><rect x="292.5" y="354.5" width="195" height="65" rx="10" fill="#ffffff" fill-opacity="0.8" stroke="#d1d9e6" stroke-width="1"/><g transform="translate(304 366) scale(0.67)" fill="none" stroke="#1a1f2e" stroke-width="2.63" stroke-linecap="round" stroke-linejoin="round" color="#1a1f2e"><path d="M16 7h6v6"/><path d="m22 7-8.5 8.5-5-5L2 17"/></g><text x="331" y="374" font-family="Roboto, -apple-system, BlinkMacSystemFont, 'Segoe UI', Helvetica, Arial, sans-serif" font-size="13" font-weight="500" fill="#1a1f2e" dominant-baseline="central" textLength="65.49" lengthAdjust="spacingAndGlyphs">POS Sales</text><rect x="304" y="390" width="68.96" height="18" rx="6" fill="#edf1f8"/><g transform="translate(310 393) scale(0.5)" fill="none" stroke="#5e6b85" stroke-width="3.2" stroke-linecap="round" stroke-linejoin="round" color="#5e6b85"><rect width="18" height="18" x="3" y="3" rx="2"/><path d="M9 3v18"/><path d="M15 3v18"/></g><text x="326" y="399" font-family="Roboto, -apple-system, BlinkMacSystemFont, 'Segoe UI', Helvetica, Arial, sans-serif" font-size="11" fill="#5e6b85" dominant-baseline="central" textLength="40.96" lengthAdjust="spacingAndGlyphs">17 fields</text><rect x="376.96" y="390" width="98.92" height="18" rx="6" fill="#edf1f8"/><g transform="translate(382.96 393) scale(0.5)" fill="none" stroke="#5e6b85" stroke-width="3.2" stroke-linecap="round" stroke-linejoin="round" color="#5e6b85"><path d="m10.586 5.414-5.172 5.172"/><path d="m18.586 13.414-5.172 5.172"/><path d="M6 12h12"/><circle cx="12" cy="20" r="2"/><circle cx="12" cy="4" r="2"/><circle cx="20" cy="12" r="2"/><circle cx="4" cy="12" r="2"/></g><text x="398.96" y="399" font-family="Roboto, -apple-system, BlinkMacSystemFont, 'Segoe UI', Helvetica, Arial, sans-serif" font-size="11" fill="#5e6b85" dominant-baseline="central" textLength="70.92" lengthAdjust="spacingAndGlyphs">7 relationships</text></g><g><title>Product</title><rect x="828.5" y="222.5" width="195" height="65" rx="10" fill="#ffffff" fill-opacity="0.8" stroke="#d1d9e6" stroke-width="1"/><g transform="translate(840 234) scale(0.67)" fill="none" stroke="#1a1f2e" stroke-width="2.63" stroke-linecap="round" stroke-linejoin="round" color="#1a1f2e"><path d="M11 21.73a2 2 0 0 0 2 0l7-4A2 2 0 0 0 21 16V8a2 2 0 0 0-1-1.73l-7-4a2 2 0 0 0-2 0l-7 4A2 2 0 0 0 3 8v8a2 2 0 0 0 1 1.73z"/><path d="M12 22V12"/><polyline points="3.29 7 12 12 20.71 7"/><path d="m7.5 4.27 9 5.15"/></g><text x="867" y="242" font-family="Roboto, -apple-system, BlinkMacSystemFont, 'Segoe UI', Helvetica, Arial, sans-serif" font-size="13" font-weight="500" fill="#1a1f2e" dominant-baseline="central" textLength="46.14" lengthAdjust="spacingAndGlyphs">Product</text><rect x="840" y="258" width="68.96" height="18" rx="6" fill="#edf1f8"/><g transform="translate(846 261) scale(0.5)" fill="none" stroke="#5e6b85" stroke-width="3.2" stroke-linecap="round" stroke-linejoin="round" color="#5e6b85"><rect width="18" height="18" x="3" y="3" rx="2"/><path d="M9 3v18"/><path d="M15 3v18"/></g><text x="862" y="267" font-family="Roboto, -apple-system, BlinkMacSystemFont, 'Segoe UI', Helvetica, Arial, sans-serif" font-size="11" fill="#5e6b85" dominant-baseline="central" textLength="40.96" lengthAdjust="spacingAndGlyphs">14 fields</text><rect x="912.96" y="258" width="98.92" height="18" rx="6" fill="#edf1f8"/><g transform="translate(918.96 261) scale(0.5)" fill="none" stroke="#5e6b85" stroke-width="3.2" stroke-linecap="round" stroke-linejoin="round" color="#5e6b85"><path d="m10.586 5.414-5.172 5.172"/><path d="m18.586 13.414-5.172 5.172"/><path d="M6 12h12"/><circle cx="12" cy="20" r="2"/><circle cx="12" cy="4" r="2"/><circle cx="20" cy="12" r="2"/><circle cx="4" cy="12" r="2"/></g><text x="934.96" y="267" font-family="Roboto, -apple-system, BlinkMacSystemFont, 'Segoe UI', Helvetica, Arial, sans-serif" font-size="11" fill="#5e6b85" dominant-baseline="central" textLength="70.92" lengthAdjust="spacingAndGlyphs">5 relationships</text></g><g><title>Promotion</title><rect x="560.5" y="322.5" width="195" height="65" rx="10" fill="#ffffff" fill-opacity="0.8" stroke="#d1d9e6" stroke-width="1"/><g transform="translate(572 334) scale(0.67)" fill="none" stroke="#1a1f2e" stroke-width="2.63" stroke-linecap="round" stroke-linejoin="round" color="#1a1f2e"><path d="M21 8a2 2 0 0 0-1-1.73l-7-4a2 2 0 0 0-2 0l-7 4A2 2 0 0 0 3 8v8a2 2 0 0 0 1 1.73l7 4a2 2 0 0 0 2 0l7-4A2 2 0 0 0 21 16Z"/><path d="m3.3 7 8.7 5 8.7-5"/><path d="M12 22V12"/></g><text x="599" y="342" font-family="Roboto, -apple-system, BlinkMacSystemFont, 'Segoe UI', Helvetica, Arial, sans-serif" font-size="13" font-weight="500" fill="#1a1f2e" dominant-baseline="central" textLength="61.02" lengthAdjust="spacingAndGlyphs">Promotion</text><rect x="572" y="358" width="62.85" height="18" rx="6" fill="#edf1f8"/><g transform="translate(578 361) scale(0.5)" fill="none" stroke="#5e6b85" stroke-width="3.2" stroke-linecap="round" stroke-linejoin="round" color="#5e6b85"><rect width="18" height="18" x="3" y="3" rx="2"/><path d="M9 3v18"/><path d="M15 3v18"/></g><text x="594" y="367" font-family="Roboto, -apple-system, BlinkMacSystemFont, 'Segoe UI', Helvetica, Arial, sans-serif" font-size="11" fill="#5e6b85" dominant-baseline="central" textLength="34.85" lengthAdjust="spacingAndGlyphs">9 fields</text><rect x="638.85" y="358" width="93.42" height="18" rx="6" fill="#edf1f8"/><g transform="translate(644.85 361) scale(0.5)" fill="none" stroke="#5e6b85" stroke-width="3.2" stroke-linecap="round" stroke-linejoin="round" color="#5e6b85"><path d="m10.586 5.414-5.172 5.172"/><path d="m18.586 13.414-5.172 5.172"/><path d="M6 12h12"/><circle cx="12" cy="20" r="2"/><circle cx="12" cy="4" r="2"/><circle cx="20" cy="12" r="2"/><circle cx="4" cy="12" r="2"/></g><text x="660.85" y="367" font-family="Roboto, -apple-system, BlinkMacSystemFont, 'Segoe UI', Helvetica, Arial, sans-serif" font-size="11" fill="#5e6b85" dominant-baseline="central" textLength="65.42" lengthAdjust="spacingAndGlyphs">1 relationship</text></g><g><title>Replenishment</title><rect x="560.5" y="108.5" width="195" height="65" rx="10" fill="#ffffff" fill-opacity="0.8" stroke="#d1d9e6" stroke-width="1"/><g transform="translate(572 120) scale(0.67)" fill="none" stroke="#1a1f2e" stroke-width="2.63" stroke-linecap="round" stroke-linejoin="round" color="#1a1f2e"><path d="M21 8a2 2 0 0 0-1-1.73l-7-4a2 2 0 0 0-2 0l-7 4A2 2 0 0 0 3 8v8a2 2 0 0 0 1 1.73l7 4a2 2 0 0 0 2 0l7-4A2 2 0 0 0 21 16Z"/><path d="m3.3 7 8.7 5 8.7-5"/><path d="M12 22V12"/></g><text x="599" y="128" font-family="Roboto, -apple-system, BlinkMacSystemFont, 'Segoe UI', Helvetica, Arial, sans-serif" font-size="13" font-weight="500" fill="#1a1f2e" dominant-baseline="central" textLength="89.3" lengthAdjust="spacingAndGlyphs">Replenishment</text><rect x="572" y="144" width="68.96" height="18" rx="6" fill="#edf1f8"/><g transform="translate(578 147) scale(0.5)" fill="none" stroke="#5e6b85" stroke-width="3.2" stroke-linecap="round" stroke-linejoin="round" color="#5e6b85"><rect width="18" height="18" x="3" y="3" rx="2"/><path d="M9 3v18"/><path d="M15 3v18"/></g><text x="594" y="153" font-family="Roboto, -apple-system, BlinkMacSystemFont, 'Segoe UI', Helvetica, Arial, sans-serif" font-size="11" fill="#5e6b85" dominant-baseline="central" textLength="40.96" lengthAdjust="spacingAndGlyphs">15 fields</text><rect x="644.96" y="144" width="98.92" height="18" rx="6" fill="#edf1f8"/><g transform="translate(650.96 147) scale(0.5)" fill="none" stroke="#5e6b85" stroke-width="3.2" stroke-linecap="round" stroke-linejoin="round" color="#5e6b85"><path d="m10.586 5.414-5.172 5.172"/><path d="m18.586 13.414-5.172 5.172"/><path d="M6 12h12"/><circle cx="12" cy="20" r="2"/><circle cx="12" cy="4" r="2"/><circle cx="20" cy="12" r="2"/><circle cx="4" cy="12" r="2"/></g><text x="666.96" y="153" font-family="Roboto, -apple-system, BlinkMacSystemFont, 'Segoe UI', Helvetica, Arial, sans-serif" font-size="11" fill="#5e6b85" dominant-baseline="central" textLength="70.92" lengthAdjust="spacingAndGlyphs">2 relationships</text></g><g><title>Returns</title><rect x="24.5" y="192.5" width="195" height="65" rx="10" fill="#ffffff" fill-opacity="0.8" stroke="#d1d9e6" stroke-width="1"/><g transform="translate(36 204) scale(0.67)" fill="none" stroke="#1a1f2e" stroke-width="2.63" stroke-linecap="round" stroke-linejoin="round" color="#1a1f2e"><path d="M21 8a2 2 0 0 0-1-1.73l-7-4a2 2 0 0 0-2 0l-7 4A2 2 0 0 0 3 8v8a2 2 0 0 0 1 1.73l7 4a2 2 0 0 0 2 0l7-4A2 2 0 0 0 21 16Z"/><path d="m3.3 7 8.7 5 8.7-5"/><path d="M12 22V12"/></g><text x="63" y="212" font-family="Roboto, -apple-system, BlinkMacSystemFont, 'Segoe UI', Helvetica, Arial, sans-serif" font-size="13" font-weight="500" fill="#1a1f2e" dominant-baseline="central" textLength="46.88" lengthAdjust="spacingAndGlyphs">Returns</text><rect x="36" y="228" width="68.96" height="18" rx="6" fill="#edf1f8"/><g transform="translate(42 231) scale(0.5)" fill="none" stroke="#5e6b85" stroke-width="3.2" stroke-linecap="round" stroke-linejoin="round" color="#5e6b85"><rect width="18" height="18" x="3" y="3" rx="2"/><path d="M9 3v18"/><path d="M15 3v18"/></g><text x="58" y="237" font-family="Roboto, -apple-system, BlinkMacSystemFont, 'Segoe UI', Helvetica, Arial, sans-serif" font-size="11" fill="#5e6b85" dominant-baseline="central" textLength="40.96" lengthAdjust="spacingAndGlyphs">14 fields</text><rect x="108.96" y="228" width="98.92" height="18" rx="6" fill="#edf1f8"/><g transform="translate(114.96 231) scale(0.5)" fill="none" stroke="#5e6b85" stroke-width="3.2" stroke-linecap="round" stroke-linejoin="round" color="#5e6b85"><path d="m10.586 5.414-5.172 5.172"/><path d="m18.586 13.414-5.172 5.172"/><path d="M6 12h12"/><circle cx="12" cy="20" r="2"/><circle cx="12" cy="4" r="2"/><circle cx="20" cy="12" r="2"/><circle cx="4" cy="12" r="2"/></g><text x="130.96" y="237" font-family="Roboto, -apple-system, BlinkMacSystemFont, 'Segoe UI', Helvetica, Arial, sans-serif" font-size="11" fill="#5e6b85" dominant-baseline="central" textLength="70.92" lengthAdjust="spacingAndGlyphs">4 relationships</text></g><g><title>Shrinkage</title><rect x="560.5" y="192.5" width="195" height="65" rx="10" fill="#ffffff" fill-opacity="0.8" stroke="#d1d9e6" stroke-width="1"/><g transform="translate(572 204) scale(0.67)" fill="none" stroke="#1a1f2e" stroke-width="2.63" stroke-linecap="round" stroke-linejoin="round" color="#1a1f2e"><path d="M21 8a2 2 0 0 0-1-1.73l-7-4a2 2 0 0 0-2 0l-7 4A2 2 0 0 0 3 8v8a2 2 0 0 0 1 1.73l7 4a2 2 0 0 0 2 0l7-4A2 2 0 0 0 21 16Z"/><path d="m3.3 7 8.7 5 8.7-5"/><path d="M12 22V12"/></g><text x="599" y="212" font-family="Roboto, -apple-system, BlinkMacSystemFont, 'Segoe UI', Helvetica, Arial, sans-serif" font-size="13" font-weight="500" fill="#1a1f2e" dominant-baseline="central" textLength="60.28" lengthAdjust="spacingAndGlyphs">Shrinkage</text><rect x="572" y="228" width="68.96" height="18" rx="6" fill="#edf1f8"/><g transform="translate(578 231) scale(0.5)" fill="none" stroke="#5e6b85" stroke-width="3.2" stroke-linecap="round" stroke-linejoin="round" color="#5e6b85"><rect width="18" height="18" x="3" y="3" rx="2"/><path d="M9 3v18"/><path d="M15 3v18"/></g><text x="594" y="237" font-family="Roboto, -apple-system, BlinkMacSystemFont, 'Segoe UI', Helvetica, Arial, sans-serif" font-size="11" fill="#5e6b85" dominant-baseline="central" textLength="40.96" lengthAdjust="spacingAndGlyphs">10 fields</text><rect x="644.96" y="228" width="98.92" height="18" rx="6" fill="#edf1f8"/><g transform="translate(650.96 231) scale(0.5)" fill="none" stroke="#5e6b85" stroke-width="3.2" stroke-linecap="round" stroke-linejoin="round" color="#5e6b85"><path d="m10.586 5.414-5.172 5.172"/><path d="m18.586 13.414-5.172 5.172"/><path d="M6 12h12"/><circle cx="12" cy="20" r="2"/><circle cx="12" cy="4" r="2"/><circle cx="20" cy="12" r="2"/><circle cx="4" cy="12" r="2"/></g><text x="666.96" y="237" font-family="Roboto, -apple-system, BlinkMacSystemFont, 'Segoe UI', Helvetica, Arial, sans-serif" font-size="11" fill="#5e6b85" dominant-baseline="central" textLength="70.92" lengthAdjust="spacingAndGlyphs">2 relationships</text></g><g><title>Store</title><rect x="828.5" y="138.5" width="195" height="65" rx="10" fill="#ffffff" fill-opacity="0.8" stroke="#d1d9e6" stroke-width="1"/><g transform="translate(840 150) scale(0.67)" fill="none" stroke="#1a1f2e" stroke-width="2.63" stroke-linecap="round" stroke-linejoin="round" color="#1a1f2e"><path d="M20 10c0 4.993-5.539 10.193-7.399 11.799a1 1 0 0 1-1.202 0C9.539 20.193 4 14.993 4 10a8 8 0 0 1 16 0"/><circle cx="12" cy="10" r="3"/></g><text x="867" y="158" font-family="Roboto, -apple-system, BlinkMacSystemFont, 'Segoe UI', Helvetica, Arial, sans-serif" font-size="13" font-weight="500" fill="#1a1f2e" dominant-baseline="central" textLength="32" lengthAdjust="spacingAndGlyphs">Store</text><rect x="840" y="174" width="62.85" height="18" rx="6" fill="#edf1f8"/><g transform="translate(846 177) scale(0.5)" fill="none" stroke="#5e6b85" stroke-width="3.2" stroke-linecap="round" stroke-linejoin="round" color="#5e6b85"><rect width="18" height="18" x="3" y="3" rx="2"/><path d="M9 3v18"/><path d="M15 3v18"/></g><text x="862" y="183" font-family="Roboto, -apple-system, BlinkMacSystemFont, 'Segoe UI', Helvetica, Arial, sans-serif" font-size="11" fill="#5e6b85" dominant-baseline="central" textLength="34.85" lengthAdjust="spacingAndGlyphs">9 fields</text><rect x="906.85" y="174" width="98.92" height="18" rx="6" fill="#edf1f8"/><g transform="translate(912.85 177) scale(0.5)" fill="none" stroke="#5e6b85" stroke-width="3.2" stroke-linecap="round" stroke-linejoin="round" color="#5e6b85"><path d="m10.586 5.414-5.172 5.172"/><path d="m18.586 13.414-5.172 5.172"/><path d="M6 12h12"/><circle cx="12" cy="20" r="2"/><circle cx="12" cy="4" r="2"/><circle cx="20" cy="12" r="2"/><circle cx="4" cy="12" r="2"/></g><text x="928.85" y="183" font-family="Roboto, -apple-system, BlinkMacSystemFont, 'Segoe UI', Helvetica, Arial, sans-serif" font-size="11" fill="#5e6b85" dominant-baseline="central" textLength="70.92" lengthAdjust="spacingAndGlyphs">7 relationships</text></g><g><title>Store Traffic</title><rect x="560.5" y="24.5" width="195" height="65" rx="10" fill="#ffffff" fill-opacity="0.8" stroke="#d1d9e6" stroke-width="1"/><g transform="translate(572 36) scale(0.67)" fill="none" stroke="#1a1f2e" stroke-width="2.63" stroke-linecap="round" stroke-linejoin="round" color="#1a1f2e"><path d="M20 10c0 4.993-5.539 10.193-7.399 11.799a1 1 0 0 1-1.202 0C9.539 20.193 4 14.993 4 10a8 8 0 0 1 16 0"/><circle cx="12" cy="10" r="3"/></g><text x="599" y="44" font-family="Roboto, -apple-system, BlinkMacSystemFont, 'Segoe UI', Helvetica, Arial, sans-serif" font-size="13" font-weight="500" fill="#1a1f2e" dominant-baseline="central" textLength="72.92" lengthAdjust="spacingAndGlyphs">Store Traffic</text><rect x="572" y="60" width="62.85" height="18" rx="6" fill="#edf1f8"/><g transform="translate(578 63) scale(0.5)" fill="none" stroke="#5e6b85" stroke-width="3.2" stroke-linecap="round" stroke-linejoin="round" color="#5e6b85"><rect width="18" height="18" x="3" y="3" rx="2"/><path d="M9 3v18"/><path d="M15 3v18"/></g><text x="594" y="69" font-family="Roboto, -apple-system, BlinkMacSystemFont, 'Segoe UI', Helvetica, Arial, sans-serif" font-size="11" fill="#5e6b85" dominant-baseline="central" textLength="34.85" lengthAdjust="spacingAndGlyphs">9 fields</text><rect x="638.85" y="60" width="98.92" height="18" rx="6" fill="#edf1f8"/><g transform="translate(644.85 63) scale(0.5)" fill="none" stroke="#5e6b85" stroke-width="3.2" stroke-linecap="round" stroke-linejoin="round" color="#5e6b85"><path d="m10.586 5.414-5.172 5.172"/><path d="m18.586 13.414-5.172 5.172"/><path d="M6 12h12"/><circle cx="12" cy="20" r="2"/><circle cx="12" cy="4" r="2"/><circle cx="20" cy="12" r="2"/><circle cx="4" cy="12" r="2"/></g><text x="660.85" y="69" font-family="Roboto, -apple-system, BlinkMacSystemFont, 'Segoe UI', Helvetica, Arial, sans-serif" font-size="11" fill="#5e6b85" dominant-baseline="central" textLength="70.92" lengthAdjust="spacingAndGlyphs">2 relationships</text></g>
</svg>
