<svg xmlns="http://www.w3.org/2000/svg" width="780" height="534" viewBox="0 0 780 534" role="img" aria-labelledby="t">
<title id="t">Saas data model — 10 data marts, 13 relationships</title>
<rect width="780" height="534" rx="16" fill="#ffffff"/>
<path d="M220 447 C 386.22 447, 386.22 259, 552.44 259" fill="none" stroke="#0b63b8" stroke-width="2" stroke-linecap="round"/><path d="M552.44 253.6L560 259L552.44 264.4Z" fill="#0b63b8"/><path d="M220 447 C 252.22 447, 252.22 405, 284.44 405" fill="none" stroke="#0b63b8" stroke-width="2" stroke-linecap="round"/><path d="M284.44 399.6L292 405L284.44 410.4Z" fill="#0b63b8"/><path d="M488 321 C 520.22 321, 520.22 259, 552.44 259" fill="none" stroke="#0b63b8" stroke-width="2" stroke-linecap="round"/><path d="M552.44 253.6L560 259L552.44 264.4Z" fill="#0b63b8"/><path d="M488 405 C 520.22 405, 520.22 259, 552.44 259" fill="none" stroke="#0b63b8" stroke-width="2" stroke-linecap="round"/><path d="M552.44 253.6L560 259L552.44 264.4Z" fill="#0b63b8"/><path d="M488 405 C 520.22 405, 520.22 477, 552.44 477" fill="none" stroke="#0b63b8" stroke-width="2" stroke-linecap="round"/><path d="M552.44 471.6L560 477L552.44 482.4Z" fill="#0b63b8"/><path d="M220 285 C 386.22 285, 386.22 259, 552.44 259" fill="none" stroke="#0b63b8" stroke-width="2" stroke-linecap="round"/><path d="M552.44 253.6L560 259L552.44 264.4Z" fill="#0b63b8"/><path d="M220 285 C 252.22 285, 252.22 405, 284.44 405" fill="none" stroke="#0b63b8" stroke-width="2" stroke-linecap="round"/><path d="M284.44 399.6L292 405L284.44 410.4Z" fill="#0b63b8"/><path d="M220 155 C 386.22 155, 386.22 259, 552.44 259" fill="none" stroke="#0b63b8" stroke-width="2" stroke-linecap="round"/><path d="M552.44 253.6L560 259L552.44 264.4Z" fill="#0b63b8"/><path d="M220 155 C 252.22 155, 252.22 57, 284.44 57" fill="none" stroke="#0b63b8" stroke-width="2" stroke-linecap="round"/><path d="M284.44 51.6L292 57L284.44 62.4Z" fill="#0b63b8"/><path d="M488 197 C 520.22 197, 520.22 259, 552.44 259" fill="none" stroke="#0b63b8" stroke-width="2" stroke-linecap="round"/><path d="M552.44 253.6L560 259L552.44 264.4Z" fill="#0b63b8"/><path d="M220 61 C 386.22 61, 386.22 259, 552.44 259" fill="none" stroke="#0b63b8" stroke-width="2" stroke-linecap="round"/><path d="M552.44 253.6L560 259L552.44 264.4Z" fill="#0b63b8"/><path d="M220 61 C 252.22 61, 252.22 57, 284.44 57" fill="none" stroke="#0b63b8" stroke-width="2" stroke-linecap="round"/><path d="M284.44 51.6L292 57L284.44 62.4Z" fill="#0b63b8"/><path d="M488 57 C 520.22 57, 520.22 259, 552.44 259" fill="none" stroke="#0b63b8" stroke-width="2" stroke-linecap="round"/><path d="M552.44 253.6L560 259L552.44 264.4Z" fill="#0b63b8"/>
<g><title>Account</title><rect x="560.5" y="226.5" width="195" height="65" rx="10" fill="#ffffff" fill-opacity="0.8" stroke="#d1d9e6" stroke-width="1"/><g transform="translate(572 238) scale(0.67)" fill="none" stroke="#1a1f2e" stroke-width="2.63" stroke-linecap="round" stroke-linejoin="round" color="#1a1f2e"><path d="M16 21v-2a4 4 0 0 0-4-4H6a4 4 0 0 0-4 4v2"/><path d="M16 3.128a4 4 0 0 1 0 7.744"/><path d="M22 21v-2a4 4 0 0 0-3-3.87"/><circle cx="9" cy="7" r="4"/></g><text x="599" y="246" font-family="Roboto, -apple-system, BlinkMacSystemFont, 'Segoe UI', Helvetica, Arial, sans-serif" font-size="13" font-weight="500" fill="#1a1f2e" dominant-baseline="central" textLength="48.38" lengthAdjust="spacingAndGlyphs">Account</text><rect x="572" y="262" width="68.96" height="18" rx="6" fill="#edf1f8"/><g transform="translate(578 265) scale(0.5)" fill="none" stroke="#5e6b85" stroke-width="3.2" stroke-linecap="round" stroke-linejoin="round" color="#5e6b85"><rect width="18" height="18" x="3" y="3" rx="2"/><path d="M9 3v18"/><path d="M15 3v18"/></g><text x="594" y="271" font-family="Roboto, -apple-system, BlinkMacSystemFont, 'Segoe UI', Helvetica, Arial, sans-serif" font-size="11" fill="#5e6b85" dominant-baseline="central" textLength="40.96" lengthAdjust="spacingAndGlyphs">12 fields</text><rect x="644.96" y="262" width="98.92" height="18" rx="6" fill="#edf1f8"/><g transform="translate(650.96 265) scale(0.5)" fill="none" stroke="#5e6b85" stroke-width="3.2" stroke-linecap="round" stroke-linejoin="round" color="#5e6b85"><path d="m10.586 5.414-5.172 5.172"/><path d="m18.586 13.414-5.172 5.172"/><path d="M6 12h12"/><circle cx="12" cy="20" r="2"/><circle cx="12" cy="4" r="2"/><circle cx="20" cy="12" r="2"/><circle cx="4" cy="12" r="2"/></g><text x="666.96" y="271" font-family="Roboto, -apple-system, BlinkMacSystemFont, 'Segoe UI', Helvetica, Arial, sans-serif" font-size="11" fill="#5e6b85" dominant-baseline="central" textLength="70.92" lengthAdjust="spacingAndGlyphs">8 relationships</text></g><g><title>Invoices</title><rect x="24.5" y="414.5" width="195" height="65" rx="10" fill="#ffffff" fill-opacity="0.8" stroke="#d1d9e6" stroke-width="1"/><g transform="translate(36 426) scale(0.67)" fill="none" stroke="#1a1f2e" stroke-width="2.63" stroke-linecap="round" stroke-linejoin="round" color="#1a1f2e"><rect width="20" height="12" x="2" y="6" rx="2"/><circle cx="12" cy="12" r="2"/><path d="M6 12h.01M18 12h.01"/></g><text x="63" y="434" font-family="Roboto, -apple-system, BlinkMacSystemFont, 'Segoe UI', Helvetica, Arial, sans-serif" font-size="13" font-weight="500" fill="#1a1f2e" dominant-baseline="central" textLength="49.11" lengthAdjust="spacingAndGlyphs">Invoices</text><rect x="36" y="450" width="68.96" height="18" rx="6" fill="#edf1f8"/><g transform="translate(42 453) scale(0.5)" fill="none" stroke="#5e6b85" stroke-width="3.2" stroke-linecap="round" stroke-linejoin="round" color="#5e6b85"><rect width="18" height="18" x="3" y="3" rx="2"/><path d="M9 3v18"/><path d="M15 3v18"/></g><text x="58" y="459" font-family="Roboto, -apple-system, BlinkMacSystemFont, 'Segoe UI', Helvetica, Arial, sans-serif" font-size="11" fill="#5e6b85" dominant-baseline="central" textLength="40.96" lengthAdjust="spacingAndGlyphs">17 fields</text><rect x="108.96" y="450" width="98.92" height="18" rx="6" fill="#edf1f8"/><g transform="translate(114.96 453) scale(0.5)" fill="none" stroke="#5e6b85" stroke-width="3.2" stroke-linecap="round" stroke-linejoin="round" color="#5e6b85"><path d="m10.586 5.414-5.172 5.172"/><path d="m18.586 13.414-5.172 5.172"/><path d="M6 12h12"/><circle cx="12" cy="20" r="2"/><circle cx="12" cy="4" r="2"/><circle cx="20" cy="12" r="2"/><circle cx="4" cy="12" r="2"/></g><text x="130.96" y="459" font-family="Roboto, -apple-system, BlinkMacSystemFont, 'Segoe UI', Helvetica, Arial, sans-serif" font-size="11" fill="#5e6b85" dominant-baseline="central" textLength="70.92" lengthAdjust="spacingAndGlyphs">2 relationships</text></g><g><title>Marketing Spend</title><rect x="292.5" y="288.5" width="195" height="65" rx="10" fill="#ffffff" fill-opacity="0.8" stroke="#d1d9e6" stroke-width="1"/><g transform="translate(304 300) scale(0.67)" fill="none" stroke="#1a1f2e" stroke-width="2.63" stroke-linecap="round" stroke-linejoin="round" color="#1a1f2e"><path d="M20 10c0 4.993-5.539 10.193-7.399 11.799a1 1 0 0 1-1.202 0C9.539 20.193 4 14.993 4 10a8 8 0 0 1 16 0"/><circle cx="12" cy="10" r="3"/></g><text x="331" y="308" font-family="Roboto, -apple-system, BlinkMacSystemFont, 'Segoe UI', Helvetica, Arial, sans-serif" font-size="13" font-weight="500" fill="#1a1f2e" dominant-baseline="central" textLength="101.22" lengthAdjust="spacingAndGlyphs">Marketing Spend</text><rect x="304" y="324" width="62.85" height="18" rx="6" fill="#edf1f8"/><g transform="translate(310 327) scale(0.5)" fill="none" stroke="#5e6b85" stroke-width="3.2" stroke-linecap="round" stroke-linejoin="round" color="#5e6b85"><rect width="18" height="18" x="3" y="3" rx="2"/><path d="M9 3v18"/><path d="M15 3v18"/></g><text x="326" y="333" font-family="Roboto, -apple-system, BlinkMacSystemFont, 'Segoe UI', Helvetica, Arial, sans-serif" font-size="11" fill="#5e6b85" dominant-baseline="central" textLength="34.85" lengthAdjust="spacingAndGlyphs">7 fields</text><rect x="370.85" y="324" width="93.42" height="18" rx="6" fill="#edf1f8"/><g transform="translate(376.85 327) scale(0.5)" fill="none" stroke="#5e6b85" stroke-width="3.2" stroke-linecap="round" stroke-linejoin="round" color="#5e6b85"><path d="m10.586 5.414-5.172 5.172"/><path d="m18.586 13.414-5.172 5.172"/><path d="M6 12h12"/><circle cx="12" cy="20" r="2"/><circle cx="12" cy="4" r="2"/><circle cx="20" cy="12" r="2"/><circle cx="4" cy="12" r="2"/></g><text x="392.85" y="333" font-family="Roboto, -apple-system, BlinkMacSystemFont, 'Segoe UI', Helvetica, Arial, sans-serif" font-size="11" fill="#5e6b85" dominant-baseline="central" textLength="65.42" lengthAdjust="spacingAndGlyphs">1 relationship</text></g><g><title>Plan</title><rect x="560.5" y="444.5" width="195" height="65" rx="10" fill="#ffffff" fill-opacity="0.8" stroke="#d1d9e6" stroke-width="1"/><g transform="translate(572 456) scale(0.67)" fill="none" stroke="#1a1f2e" stroke-width="2.63" stroke-linecap="round" stroke-linejoin="round" color="#1a1f2e"><path d="M21 8a2 2 0 0 0-1-1.73l-7-4a2 2 0 0 0-2 0l-7 4A2 2 0 0 0 3 8v8a2 2 0 0 0 1 1.73l7 4a2 2 0 0 0 2 0l7-4A2 2 0 0 0 21 16Z"/><path d="m3.3 7 8.7 5 8.7-5"/><path d="M12 22V12"/></g><text x="599" y="464" font-family="Roboto, -apple-system, BlinkMacSystemFont, 'Segoe UI', Helvetica, Arial, sans-serif" font-size="13" font-weight="500" fill="#1a1f2e" dominant-baseline="central" textLength="26.79" lengthAdjust="spacingAndGlyphs">Plan</text><rect x="572" y="480" width="62.85" height="18" rx="6" fill="#edf1f8"/><g transform="translate(578 483) scale(0.5)" fill="none" stroke="#5e6b85" stroke-width="3.2" stroke-linecap="round" stroke-linejoin="round" color="#5e6b85"><rect width="18" height="18" x="3" y="3" rx="2"/><path d="M9 3v18"/><path d="M15 3v18"/></g><text x="594" y="489" font-family="Roboto, -apple-system, BlinkMacSystemFont, 'Segoe UI', Helvetica, Arial, sans-serif" font-size="11" fill="#5e6b85" dominant-baseline="central" textLength="34.85" lengthAdjust="spacingAndGlyphs">7 fields</text><rect x="638.85" y="480" width="93.42" height="18" rx="6" fill="#edf1f8"/><g transform="translate(644.85 483) scale(0.5)" fill="none" stroke="#5e6b85" stroke-width="3.2" stroke-linecap="round" stroke-linejoin="round" color="#5e6b85"><path d="m10.586 5.414-5.172 5.172"/><path d="m18.586 13.414-5.172 5.172"/><path d="M6 12h12"/><circle cx="12" cy="20" r="2"/><circle cx="12" cy="4" r="2"/><circle cx="20" cy="12" r="2"/><circle cx="4" cy="12" r="2"/></g><text x="660.85" y="489" font-family="Roboto, -apple-system, BlinkMacSystemFont, 'Segoe UI', Helvetica, Arial, sans-serif" font-size="11" fill="#5e6b85" dominant-baseline="central" textLength="65.42" lengthAdjust="spacingAndGlyphs">1 relationship</text></g><g><title>Subscription</title><rect x="292.5" y="372.5" width="195" height="65" rx="10" fill="#ffffff" fill-opacity="0.8" stroke="#d1d9e6" stroke-width="1"/><g transform="translate(304 384) scale(0.67)" fill="none" stroke="#1a1f2e" stroke-width="2.63" stroke-linecap="round" stroke-linejoin="round" color="#1a1f2e"><path d="m17 2 4 4-4 4"/><path d="M3 11v-1a4 4 0 0 1 4-4h14"/><path d="m7 22-4-4 4-4"/><path d="M21 13v1a4 4 0 0 1-4 4H3"/></g><text x="331" y="392" font-family="Roboto, -apple-system, BlinkMacSystemFont, 'Segoe UI', Helvetica, Arial, sans-serif" font-size="13" font-weight="500" fill="#1a1f2e" dominant-baseline="central" textLength="73.67" lengthAdjust="spacingAndGlyphs">Subscription</text><rect x="304" y="408" width="68.96" height="18" rx="6" fill="#edf1f8"/><g transform="translate(310 411) scale(0.5)" fill="none" stroke="#5e6b85" stroke-width="3.2" stroke-linecap="round" stroke-linejoin="round" color="#5e6b85"><rect width="18" height="18" x="3" y="3" rx="2"/><path d="M9 3v18"/><path d="M15 3v18"/></g><text x="326" y="417" font-family="Roboto, -apple-system, BlinkMacSystemFont, 'Segoe UI', Helvetica, Arial, sans-serif" font-size="11" fill="#5e6b85" dominant-baseline="central" textLength="40.96" lengthAdjust="spacingAndGlyphs">14 fields</text><rect x="376.96" y="408" width="98.92" height="18" rx="6" fill="#edf1f8"/><g transform="translate(382.96 411) scale(0.5)" fill="none" stroke="#5e6b85" stroke-width="3.2" stroke-linecap="round" stroke-linejoin="round" color="#5e6b85"><path d="m10.586 5.414-5.172 5.172"/><path d="m18.586 13.414-5.172 5.172"/><path d="M6 12h12"/><circle cx="12" cy="20" r="2"/><circle cx="12" cy="4" r="2"/><circle cx="20" cy="12" r="2"/><circle cx="4" cy="12" r="2"/></g><text x="398.96" y="417" font-family="Roboto, -apple-system, BlinkMacSystemFont, 'Segoe UI', Helvetica, Arial, sans-serif" font-size="11" fill="#5e6b85" dominant-baseline="central" textLength="70.92" lengthAdjust="spacingAndGlyphs">4 relationships</text></g><g><title>Subscription Events</title><rect x="24.5" y="252.5" width="195" height="65" rx="10" fill="#ffffff" fill-opacity="0.8" stroke="#d1d9e6" stroke-width="1"/><g transform="translate(36 264) scale(0.67)" fill="none" stroke="#1a1f2e" stroke-width="2.63" stroke-linecap="round" stroke-linejoin="round" color="#1a1f2e"><path d="m17 2 4 4-4 4"/><path d="M3 11v-1a4 4 0 0 1 4-4h14"/><path d="m7 22-4-4 4-4"/><path d="M21 13v1a4 4 0 0 1-4 4H3"/></g><text x="63" y="272" font-family="Roboto, -apple-system, BlinkMacSystemFont, 'Segoe UI', Helvetica, Arial, sans-serif" font-size="13" font-weight="500" fill="#1a1f2e" dominant-baseline="central" textLength="118.33" lengthAdjust="spacingAndGlyphs">Subscription Events</text><rect x="36" y="288" width="68.96" height="18" rx="6" fill="#edf1f8"/><g transform="translate(42 291) scale(0.5)" fill="none" stroke="#5e6b85" stroke-width="3.2" stroke-linecap="round" stroke-linejoin="round" color="#5e6b85"><rect width="18" height="18" x="3" y="3" rx="2"/><path d="M9 3v18"/><path d="M15 3v18"/></g><text x="58" y="297" font-family="Roboto, -apple-system, BlinkMacSystemFont, 'Segoe UI', Helvetica, Arial, sans-serif" font-size="11" fill="#5e6b85" dominant-baseline="central" textLength="40.96" lengthAdjust="spacingAndGlyphs">10 fields</text><rect x="108.96" y="288" width="98.92" height="18" rx="6" fill="#edf1f8"/><g transform="translate(114.96 291) scale(0.5)" fill="none" stroke="#5e6b85" stroke-width="3.2" stroke-linecap="round" stroke-linejoin="round" color="#5e6b85"><path d="m10.586 5.414-5.172 5.172"/><path d="m18.586 13.414-5.172 5.172"/><path d="M6 12h12"/><circle cx="12" cy="20" r="2"/><circle cx="12" cy="4" r="2"/><circle cx="20" cy="12" r="2"/><circle cx="4" cy="12" r="2"/></g><text x="130.96" y="297" font-family="Roboto, -apple-system, BlinkMacSystemFont, 'Segoe UI', Helvetica, Arial, sans-serif" font-size="11" fill="#5e6b85" dominant-baseline="central" textLength="70.92" lengthAdjust="spacingAndGlyphs">2 relationships</text></g><g><title>Support Tickets</title><rect x="24.5" y="122.5" width="195" height="65" rx="10" fill="#ffffff" fill-opacity="0.8" stroke="#d1d9e6" stroke-width="1"/><g transform="translate(36 134) scale(0.67)" fill="none" stroke="#1a1f2e" stroke-width="2.63" stroke-linecap="round" stroke-linejoin="round" color="#1a1f2e"><path d="M2 9a3 3 0 0 1 0 6v2a2 2 0 0 0 2 2h16a2 2 0 0 0 2-2v-2a3 3 0 0 1 0-6V7a2 2 0 0 0-2-2H4a2 2 0 0 0-2 2Z"/><path d="M13 5v2"/><path d="M13 17v2"/><path d="M13 11v2"/></g><text x="63" y="142" font-family="Roboto, -apple-system, BlinkMacSystemFont, 'Segoe UI', Helvetica, Arial, sans-serif" font-size="13" font-weight="500" fill="#1a1f2e" dominant-baseline="central" textLength="93.02" lengthAdjust="spacingAndGlyphs">Support Tickets</text><rect x="36" y="158" width="62.85" height="18" rx="6" fill="#edf1f8"/><g transform="translate(42 161) scale(0.5)" fill="none" stroke="#5e6b85" stroke-width="3.2" stroke-linecap="round" stroke-linejoin="round" color="#5e6b85"><rect width="18" height="18" x="3" y="3" rx="2"/><path d="M9 3v18"/><path d="M15 3v18"/></g><text x="58" y="167" font-family="Roboto, -apple-system, BlinkMacSystemFont, 'Segoe UI', Helvetica, Arial, sans-serif" font-size="11" fill="#5e6b85" dominant-baseline="central" textLength="34.85" lengthAdjust="spacingAndGlyphs">9 fields</text><rect x="102.85" y="158" width="98.92" height="18" rx="6" fill="#edf1f8"/><g transform="translate(108.85 161) scale(0.5)" fill="none" stroke="#5e6b85" stroke-width="3.2" stroke-linecap="round" stroke-linejoin="round" color="#5e6b85"><path d="m10.586 5.414-5.172 5.172"/><path d="m18.586 13.414-5.172 5.172"/><path d="M6 12h12"/><circle cx="12" cy="20" r="2"/><circle cx="12" cy="4" r="2"/><circle cx="20" cy="12" r="2"/><circle cx="4" cy="12" r="2"/></g><text x="124.85" y="167" font-family="Roboto, -apple-system, BlinkMacSystemFont, 'Segoe UI', Helvetica, Arial, sans-serif" font-size="11" fill="#5e6b85" dominant-baseline="central" textLength="70.92" lengthAdjust="spacingAndGlyphs">2 relationships</text></g><g><title>Trials</title><rect x="292.5" y="164.5" width="195" height="65" rx="10" fill="#ffffff" fill-opacity="0.8" stroke="#d1d9e6" stroke-width="1"/><g transform="translate(304 176) scale(0.67)" fill="none" stroke="#1a1f2e" stroke-width="2.63" stroke-linecap="round" stroke-linejoin="round" color="#1a1f2e"><path d="M21 8a2 2 0 0 0-1-1.73l-7-4a2 2 0 0 0-2 0l-7 4A2 2 0 0 0 3 8v8a2 2 0 0 0 1 1.73l7 4a2 2 0 0 0 2 0l7-4A2 2 0 0 0 21 16Z"/><path d="m3.3 7 8.7 5 8.7-5"/><path d="M12 22V12"/></g><text x="331" y="184" font-family="Roboto, -apple-system, BlinkMacSystemFont, 'Segoe UI', Helvetica, Arial, sans-serif" font-size="13" font-weight="500" fill="#1a1f2e" dominant-baseline="central" textLength="32.73" lengthAdjust="spacingAndGlyphs">Trials</text><rect x="304" y="200" width="62.85" height="18" rx="6" fill="#edf1f8"/><g transform="translate(310 203) scale(0.5)" fill="none" stroke="#5e6b85" stroke-width="3.2" stroke-linecap="round" stroke-linejoin="round" color="#5e6b85"><rect width="18" height="18" x="3" y="3" rx="2"/><path d="M9 3v18"/><path d="M15 3v18"/></g><text x="326" y="209" font-family="Roboto, -apple-system, BlinkMacSystemFont, 'Segoe UI', Helvetica, Arial, sans-serif" font-size="11" fill="#5e6b85" dominant-baseline="central" textLength="34.85" lengthAdjust="spacingAndGlyphs">8 fields</text><rect x="370.85" y="200" width="93.42" height="18" rx="6" fill="#edf1f8"/><g transform="translate(376.85 203) scale(0.5)" fill="none" stroke="#5e6b85" stroke-width="3.2" stroke-linecap="round" stroke-linejoin="round" color="#5e6b85"><path d="m10.586 5.414-5.172 5.172"/><path d="m18.586 13.414-5.172 5.172"/><path d="M6 12h12"/><circle cx="12" cy="20" r="2"/><circle cx="12" cy="4" r="2"/><circle cx="20" cy="12" r="2"/><circle cx="4" cy="12" r="2"/></g><text x="392.85" y="209" font-family="Roboto, -apple-system, BlinkMacSystemFont, 'Segoe UI', Helvetica, Arial, sans-serif" font-size="11" fill="#5e6b85" dominant-baseline="central" textLength="65.42" lengthAdjust="spacingAndGlyphs">1 relationship</text></g><g><title>Usage (daily)</title><rect x="24.5" y="28.5" width="195" height="65" rx="10" fill="#ffffff" fill-opacity="0.8" stroke="#d1d9e6" stroke-width="1"/><g transform="translate(36 40) scale(0.67)" fill="none" stroke="#1a1f2e" stroke-width="2.63" stroke-linecap="round" stroke-linejoin="round" color="#1a1f2e"><path d="M21 8a2 2 0 0 0-1-1.73l-7-4a2 2 0 0 0-2 0l-7 4A2 2 0 0 0 3 8v8a2 2 0 0 0 1 1.73l7 4a2 2 0 0 0 2 0l7-4A2 2 0 0 0 21 16Z"/><path d="m3.3 7 8.7 5 8.7-5"/><path d="M12 22V12"/></g><text x="63" y="48" font-family="Roboto, -apple-system, BlinkMacSystemFont, 'Segoe UI', Helvetica, Arial, sans-serif" font-size="13" font-weight="500" fill="#1a1f2e" dominant-baseline="central" textLength="78.87" lengthAdjust="spacingAndGlyphs">Usage (daily)</text><rect x="36" y="64" width="62.85" height="18" rx="6" fill="#edf1f8"/><g transform="translate(42 67) scale(0.5)" fill="none" stroke="#5e6b85" stroke-width="3.2" stroke-linecap="round" stroke-linejoin="round" color="#5e6b85"><rect width="18" height="18" x="3" y="3" rx="2"/><path d="M9 3v18"/><path d="M15 3v18"/></g><text x="58" y="73" font-family="Roboto, -apple-system, BlinkMacSystemFont, 'Segoe UI', Helvetica, Arial, sans-serif" font-size="11" fill="#5e6b85" dominant-baseline="central" textLength="34.85" lengthAdjust="spacingAndGlyphs">7 fields</text><rect x="102.85" y="64" width="98.92" height="18" rx="6" fill="#edf1f8"/><g transform="translate(108.85 67) scale(0.5)" fill="none" stroke="#5e6b85" stroke-width="3.2" stroke-linecap="round" stroke-linejoin="round" color="#5e6b85"><path d="m10.586 5.414-5.172 5.172"/><path d="m18.586 13.414-5.172 5.172"/><path d="M6 12h12"/><circle cx="12" cy="20" r="2"/><circle cx="12" cy="4" r="2"/><circle cx="20" cy="12" r="2"/><circle cx="4" cy="12" r="2"/></g><text x="124.85" y="73" font-family="Roboto, -apple-system, BlinkMacSystemFont, 'Segoe UI', Helvetica, Arial, sans-serif" font-size="11" fill="#5e6b85" dominant-baseline="central" textLength="70.92" lengthAdjust="spacingAndGlyphs">2 relationships</text></g><g><title>User</title><rect x="292.5" y="24.5" width="195" height="65" rx="10" fill="#ffffff" fill-opacity="0.8" stroke="#d1d9e6" stroke-width="1"/><g transform="translate(304 36) scale(0.67)" fill="none" stroke="#1a1f2e" stroke-width="2.63" stroke-linecap="round" stroke-linejoin="round" color="#1a1f2e"><circle cx="12" cy="8" r="5"/><path d="M20 21a8 8 0 0 0-16 0"/></g><text x="331" y="44" font-family="Roboto, -apple-system, BlinkMacSystemFont, 'Segoe UI', Helvetica, Arial, sans-serif" font-size="13" font-weight="500" fill="#1a1f2e" dominant-baseline="central" textLength="28.27" lengthAdjust="spacingAndGlyphs">User</text><rect x="304" y="60" width="62.85" height="18" rx="6" fill="#edf1f8"/><g transform="translate(310 63) scale(0.5)" fill="none" stroke="#5e6b85" stroke-width="3.2" stroke-linecap="round" stroke-linejoin="round" color="#5e6b85"><rect width="18" height="18" x="3" y="3" rx="2"/><path d="M9 3v18"/><path d="M15 3v18"/></g><text x="326" y="69" font-family="Roboto, -apple-system, BlinkMacSystemFont, 'Segoe UI', Helvetica, Arial, sans-serif" font-size="11" fill="#5e6b85" dominant-baseline="central" textLength="34.85" lengthAdjust="spacingAndGlyphs">8 fields</text><rect x="370.85" y="60" width="98.92" height="18" rx="6" fill="#edf1f8"/><g transform="translate(376.85 63) scale(0.5)" fill="none" stroke="#5e6b85" stroke-width="3.2" stroke-linecap="round" stroke-linejoin="round" color="#5e6b85"><path d="m10.586 5.414-5.172 5.172"/><path d="m18.586 13.414-5.172 5.172"/><path d="M6 12h12"/><circle cx="12" cy="20" r="2"/><circle cx="12" cy="4" r="2"/><circle cx="20" cy="12" r="2"/><circle cx="4" cy="12" r="2"/></g><text x="392.85" y="69" font-family="Roboto, -apple-system, BlinkMacSystemFont, 'Segoe UI', Helvetica, Arial, sans-serif" font-size="11" fill="#5e6b85" dominant-baseline="central" textLength="70.92" lengthAdjust="spacingAndGlyphs">3 relationships</text></g>
</svg>
