<svg xmlns="http://www.w3.org/2000/svg" width="1316" height="342" viewBox="0 0 1316 342" role="img" aria-labelledby="t">
<title id="t">Trading data model — 8 data marts, 11 relationships</title>
<rect width="1316" height="342" rx="16" fill="#ffffff"/>
<path d="M1024 67 C 1056.22 67, 1056.22 67, 1088.44 67" fill="none" stroke="#0b63b8" stroke-width="2" stroke-linecap="round"/><path d="M1088.44 61.6L1096 67L1088.44 72.4Z" fill="#0b63b8"/><path d="M220 285 C 520.22 285, 520.22 187, 820.44 187" fill="none" stroke="#0b63b8" stroke-width="2" stroke-linecap="round"/><path d="M820.44 181.6L828 187L820.44 192.4Z" fill="#0b63b8"/><path d="M220 285 C 252.22 285, 252.22 171, 284.44 171" fill="none" stroke="#0b63b8" stroke-width="2" stroke-linecap="round"/><path d="M284.44 165.6L292 171L284.44 176.4Z" fill="#0b63b8"/><path d="M220 197 C 520.22 197, 520.22 187, 820.44 187" fill="none" stroke="#0b63b8" stroke-width="2" stroke-linecap="round"/><path d="M820.44 181.6L828 187L820.44 192.4Z" fill="#0b63b8"/><path d="M220 197 C 252.22 197, 252.22 171, 284.44 171" fill="none" stroke="#0b63b8" stroke-width="2" stroke-linecap="round"/><path d="M284.44 165.6L292 171L284.44 176.4Z" fill="#0b63b8"/><path d="M220 197 C 386.22 197, 386.22 57, 552.44 57" fill="none" stroke="#0b63b8" stroke-width="2" stroke-linecap="round"/><path d="M552.44 51.6L560 57L552.44 62.4Z" fill="#0b63b8"/><path d="M488 171 C 654.22 171, 654.22 187, 820.44 187" fill="none" stroke="#0b63b8" stroke-width="2" stroke-linecap="round"/><path d="M820.44 181.6L828 187L820.44 192.4Z" fill="#0b63b8"/><path d="M488 171 C 520.22 171, 520.22 141, 552.44 141" fill="none" stroke="#0b63b8" stroke-width="2" stroke-linecap="round"/><path d="M552.44 135.6L560 141L552.44 146.4Z" fill="#0b63b8"/><path d="M756 141 C 788.22 141, 788.22 67, 820.44 67" fill="none" stroke="#0b63b8" stroke-width="2" stroke-linecap="round"/><path d="M820.44 61.6L828 67L820.44 72.4Z" fill="#0b63b8"/><path d="M756 141 C 788.22 141, 788.22 187, 820.44 187" fill="none" stroke="#0b63b8" stroke-width="2" stroke-linecap="round"/><path d="M820.44 181.6L828 187L820.44 192.4Z" fill="#0b63b8"/><path d="M756 57 C 788.22 57, 788.22 187, 820.44 187" fill="none" stroke="#0b63b8" stroke-width="2" stroke-linecap="round"/><path d="M820.44 181.6L828 187L820.44 192.4Z" fill="#0b63b8"/>
<g><title>Ad Spend</title><rect x="1096.5" y="34.5" width="195" height="65" rx="10" fill="#ffffff" fill-opacity="0.8" stroke="#d1d9e6" stroke-width="1"/><g transform="translate(1108 46) scale(0.67)" fill="none" stroke="#1a1f2e" stroke-width="2.63" stroke-linecap="round" stroke-linejoin="round" color="#1a1f2e"><rect width="20" height="12" x="2" y="6" rx="2"/><circle cx="12" cy="12" r="2"/><path d="M6 12h.01M18 12h.01"/></g><text x="1135" y="54" font-family="Roboto, -apple-system, BlinkMacSystemFont, 'Segoe UI', Helvetica, Arial, sans-serif" font-size="13" font-weight="500" fill="#1a1f2e" dominant-baseline="central" textLength="58.81" lengthAdjust="spacingAndGlyphs">Ad Spend</text><rect x="1108" y="70" width="68.96" height="18" rx="6" fill="#edf1f8"/><g transform="translate(1114 73) scale(0.5)" fill="none" stroke="#5e6b85" stroke-width="3.2" stroke-linecap="round" stroke-linejoin="round" color="#5e6b85"><rect width="18" height="18" x="3" y="3" rx="2"/><path d="M9 3v18"/><path d="M15 3v18"/></g><text x="1130" y="79" font-family="Roboto, -apple-system, BlinkMacSystemFont, 'Segoe UI', Helvetica, Arial, sans-serif" font-size="11" fill="#5e6b85" dominant-baseline="central" textLength="40.96" lengthAdjust="spacingAndGlyphs">11 fields</text><rect x="1180.96" y="70" width="93.42" height="18" rx="6" fill="#edf1f8"/><g transform="translate(1186.96 73) scale(0.5)" fill="none" stroke="#5e6b85" stroke-width="3.2" stroke-linecap="round" stroke-linejoin="round" color="#5e6b85"><path d="m10.586 5.414-5.172 5.172"/><path d="m18.586 13.414-5.172 5.172"/><path d="M6 12h12"/><circle cx="12" cy="20" r="2"/><circle cx="12" cy="4" r="2"/><circle cx="20" cy="12" r="2"/><circle cx="4" cy="12" r="2"/></g><text x="1202.96" y="79" font-family="Roboto, -apple-system, BlinkMacSystemFont, 'Segoe UI', Helvetica, Arial, sans-serif" font-size="11" fill="#5e6b85" dominant-baseline="central" textLength="65.42" lengthAdjust="spacingAndGlyphs">1 relationship</text></g><g><title>Attribution</title><rect x="828.5" y="34.5" width="195" height="65" rx="10" fill="#ffffff" fill-opacity="0.8" stroke="#d1d9e6" stroke-width="1"/><g transform="translate(840 46) scale(0.67)" fill="none" stroke="#1a1f2e" stroke-width="2.63" stroke-linecap="round" stroke-linejoin="round" color="#1a1f2e"><path d="M21 8a2 2 0 0 0-1-1.73l-7-4a2 2 0 0 0-2 0l-7 4A2 2 0 0 0 3 8v8a2 2 0 0 0 1 1.73l7 4a2 2 0 0 0 2 0l7-4A2 2 0 0 0 21 16Z"/><path d="m3.3 7 8.7 5 8.7-5"/><path d="M12 22V12"/></g><text x="867" y="54" font-family="Roboto, -apple-system, BlinkMacSystemFont, 'Segoe UI', Helvetica, Arial, sans-serif" font-size="13" font-weight="500" fill="#1a1f2e" dominant-baseline="central" textLength="60.28" lengthAdjust="spacingAndGlyphs">Attribution</text><rect x="840" y="70" width="68.96" height="18" rx="6" fill="#edf1f8"/><g transform="translate(846 73) scale(0.5)" fill="none" stroke="#5e6b85" stroke-width="3.2" stroke-linecap="round" stroke-linejoin="round" color="#5e6b85"><rect width="18" height="18" x="3" y="3" rx="2"/><path d="M9 3v18"/><path d="M15 3v18"/></g><text x="862" y="79" font-family="Roboto, -apple-system, BlinkMacSystemFont, 'Segoe UI', Helvetica, Arial, sans-serif" font-size="11" fill="#5e6b85" dominant-baseline="central" textLength="40.96" lengthAdjust="spacingAndGlyphs">29 fields</text><rect x="912.96" y="70" width="98.92" height="18" rx="6" fill="#edf1f8"/><g transform="translate(918.96 73) scale(0.5)" fill="none" stroke="#5e6b85" stroke-width="3.2" stroke-linecap="round" stroke-linejoin="round" color="#5e6b85"><path d="m10.586 5.414-5.172 5.172"/><path d="m18.586 13.414-5.172 5.172"/><path d="M6 12h12"/><circle cx="12" cy="20" r="2"/><circle cx="12" cy="4" r="2"/><circle cx="20" cy="12" r="2"/><circle cx="4" cy="12" r="2"/></g><text x="934.96" y="79" font-family="Roboto, -apple-system, BlinkMacSystemFont, 'Segoe UI', Helvetica, Arial, sans-serif" font-size="11" fill="#5e6b85" dominant-baseline="central" textLength="70.92" lengthAdjust="spacingAndGlyphs">2 relationships</text></g><g><title>Clients</title><rect x="828.5" y="154.5" width="195" height="65" rx="10" fill="#ffffff" fill-opacity="0.8" stroke="#d1d9e6" stroke-width="1"/><g transform="translate(840 166) scale(0.67)" fill="none" stroke="#1a1f2e" stroke-width="2.63" stroke-linecap="round" stroke-linejoin="round" color="#1a1f2e"><path d="M16 21v-2a4 4 0 0 0-4-4H6a4 4 0 0 0-4 4v2"/><path d="M16 3.128a4 4 0 0 1 0 7.744"/><path d="M22 21v-2a4 4 0 0 0-3-3.87"/><circle cx="9" cy="7" r="4"/></g><text x="867" y="174" font-family="Roboto, -apple-system, BlinkMacSystemFont, 'Segoe UI', Helvetica, Arial, sans-serif" font-size="13" font-weight="500" fill="#1a1f2e" dominant-baseline="central" textLength="40.92" lengthAdjust="spacingAndGlyphs">Clients</text><rect x="840" y="190" width="68.96" height="18" rx="6" fill="#edf1f8"/><g transform="translate(846 193) scale(0.5)" fill="none" stroke="#5e6b85" stroke-width="3.2" stroke-linecap="round" stroke-linejoin="round" color="#5e6b85"><rect width="18" height="18" x="3" y="3" rx="2"/><path d="M9 3v18"/><path d="M15 3v18"/></g><text x="862" y="199" font-family="Roboto, -apple-system, BlinkMacSystemFont, 'Segoe UI', Helvetica, Arial, sans-serif" font-size="11" fill="#5e6b85" dominant-baseline="central" textLength="40.96" lengthAdjust="spacingAndGlyphs">39 fields</text><rect x="912.96" y="190" width="98.92" height="18" rx="6" fill="#edf1f8"/><g transform="translate(918.96 193) scale(0.5)" fill="none" stroke="#5e6b85" stroke-width="3.2" stroke-linecap="round" stroke-linejoin="round" color="#5e6b85"><path d="m10.586 5.414-5.172 5.172"/><path d="m18.586 13.414-5.172 5.172"/><path d="M6 12h12"/><circle cx="12" cy="20" r="2"/><circle cx="12" cy="4" r="2"/><circle cx="20" cy="12" r="2"/><circle cx="4" cy="12" r="2"/></g><text x="934.96" y="199" font-family="Roboto, -apple-system, BlinkMacSystemFont, 'Segoe UI', Helvetica, Arial, sans-serif" font-size="11" fill="#5e6b85" dominant-baseline="central" textLength="70.92" lengthAdjust="spacingAndGlyphs">5 relationships</text></g><g><title>Communications</title><rect x="24.5" y="252.5" width="195" height="65" rx="10" fill="#ffffff" fill-opacity="0.8" stroke="#d1d9e6" stroke-width="1"/><g transform="translate(36 264) scale(0.67)" fill="none" stroke="#1a1f2e" stroke-width="2.63" stroke-linecap="round" stroke-linejoin="round" color="#1a1f2e"><path d="M21 8a2 2 0 0 0-1-1.73l-7-4a2 2 0 0 0-2 0l-7 4A2 2 0 0 0 3 8v8a2 2 0 0 0 1 1.73l7 4a2 2 0 0 0 2 0l7-4A2 2 0 0 0 21 16Z"/><path d="m3.3 7 8.7 5 8.7-5"/><path d="M12 22V12"/></g><text x="63" y="272" font-family="Roboto, -apple-system, BlinkMacSystemFont, 'Segoe UI', Helvetica, Arial, sans-serif" font-size="13" font-weight="500" fill="#1a1f2e" dominant-baseline="central" textLength="99.7" lengthAdjust="spacingAndGlyphs">Communications</text><rect x="36" y="288" width="68.96" height="18" rx="6" fill="#edf1f8"/><g transform="translate(42 291) scale(0.5)" fill="none" stroke="#5e6b85" stroke-width="3.2" stroke-linecap="round" stroke-linejoin="round" color="#5e6b85"><rect width="18" height="18" x="3" y="3" rx="2"/><path d="M9 3v18"/><path d="M15 3v18"/></g><text x="58" y="297" font-family="Roboto, -apple-system, BlinkMacSystemFont, 'Segoe UI', Helvetica, Arial, sans-serif" font-size="11" fill="#5e6b85" dominant-baseline="central" textLength="40.96" lengthAdjust="spacingAndGlyphs">16 fields</text><rect x="108.96" y="288" width="98.92" height="18" rx="6" fill="#edf1f8"/><g transform="translate(114.96 291) scale(0.5)" fill="none" stroke="#5e6b85" stroke-width="3.2" stroke-linecap="round" stroke-linejoin="round" color="#5e6b85"><path d="m10.586 5.414-5.172 5.172"/><path d="m18.586 13.414-5.172 5.172"/><path d="M6 12h12"/><circle cx="12" cy="20" r="2"/><circle cx="12" cy="4" r="2"/><circle cx="20" cy="12" r="2"/><circle cx="4" cy="12" r="2"/></g><text x="130.96" y="297" font-family="Roboto, -apple-system, BlinkMacSystemFont, 'Segoe UI', Helvetica, Arial, sans-serif" font-size="11" fill="#5e6b85" dominant-baseline="central" textLength="70.92" lengthAdjust="spacingAndGlyphs">2 relationships</text></g><g><title>Deposits</title><rect x="24.5" y="164.5" width="195" height="65" rx="10" fill="#ffffff" fill-opacity="0.8" stroke="#d1d9e6" stroke-width="1"/><g transform="translate(36 176) scale(0.67)" fill="none" stroke="#1a1f2e" stroke-width="2.63" stroke-linecap="round" stroke-linejoin="round" color="#1a1f2e"><path d="M21 8a2 2 0 0 0-1-1.73l-7-4a2 2 0 0 0-2 0l-7 4A2 2 0 0 0 3 8v8a2 2 0 0 0 1 1.73l7 4a2 2 0 0 0 2 0l7-4A2 2 0 0 0 21 16Z"/><path d="m3.3 7 8.7 5 8.7-5"/><path d="M12 22V12"/></g><text x="63" y="184" font-family="Roboto, -apple-system, BlinkMacSystemFont, 'Segoe UI', Helvetica, Arial, sans-serif" font-size="13" font-weight="500" fill="#1a1f2e" dominant-baseline="central" textLength="52.09" lengthAdjust="spacingAndGlyphs">Deposits</text><rect x="36" y="200" width="68.96" height="18" rx="6" fill="#edf1f8"/><g transform="translate(42 203) scale(0.5)" fill="none" stroke="#5e6b85" stroke-width="3.2" stroke-linecap="round" stroke-linejoin="round" color="#5e6b85"><rect width="18" height="18" x="3" y="3" rx="2"/><path d="M9 3v18"/><path d="M15 3v18"/></g><text x="58" y="209" font-family="Roboto, -apple-system, BlinkMacSystemFont, 'Segoe UI', Helvetica, Arial, sans-serif" font-size="11" fill="#5e6b85" dominant-baseline="central" textLength="40.96" lengthAdjust="spacingAndGlyphs">16 fields</text><rect x="108.96" y="200" width="98.92" height="18" rx="6" fill="#edf1f8"/><g transform="translate(114.96 203) scale(0.5)" fill="none" stroke="#5e6b85" stroke-width="3.2" stroke-linecap="round" stroke-linejoin="round" color="#5e6b85"><path d="m10.586 5.414-5.172 5.172"/><path d="m18.586 13.414-5.172 5.172"/><path d="M6 12h12"/><circle cx="12" cy="20" r="2"/><circle cx="12" cy="4" r="2"/><circle cx="20" cy="12" r="2"/><circle cx="4" cy="12" r="2"/></g><text x="130.96" y="209" font-family="Roboto, -apple-system, BlinkMacSystemFont, 'Segoe UI', Helvetica, Arial, sans-serif" font-size="11" fill="#5e6b85" dominant-baseline="central" textLength="70.92" lengthAdjust="spacingAndGlyphs">3 relationships</text></g><g><title>Leads</title><rect x="292.5" y="138.5" width="195" height="65" rx="10" fill="#ffffff" fill-opacity="0.8" stroke="#d1d9e6" stroke-width="1"/><g transform="translate(304 150) scale(0.67)" fill="none" stroke="#1a1f2e" stroke-width="2.63" stroke-linecap="round" stroke-linejoin="round" color="#1a1f2e"><circle cx="12" cy="8" r="5"/><path d="M20 21a8 8 0 0 0-16 0"/></g><text x="331" y="158" font-family="Roboto, -apple-system, BlinkMacSystemFont, 'Segoe UI', Helvetica, Arial, sans-serif" font-size="13" font-weight="500" fill="#1a1f2e" dominant-baseline="central" textLength="36.47" lengthAdjust="spacingAndGlyphs">Leads</text><rect x="304" y="174" width="68.96" height="18" rx="6" fill="#edf1f8"/><g transform="translate(310 177) scale(0.5)" fill="none" stroke="#5e6b85" stroke-width="3.2" stroke-linecap="round" stroke-linejoin="round" color="#5e6b85"><rect width="18" height="18" x="3" y="3" rx="2"/><path d="M9 3v18"/><path d="M15 3v18"/></g><text x="326" y="183" font-family="Roboto, -apple-system, BlinkMacSystemFont, 'Segoe UI', Helvetica, Arial, sans-serif" font-size="11" fill="#5e6b85" dominant-baseline="central" textLength="40.96" lengthAdjust="spacingAndGlyphs">16 fields</text><rect x="376.96" y="174" width="98.92" height="18" rx="6" fill="#edf1f8"/><g transform="translate(382.96 177) scale(0.5)" fill="none" stroke="#5e6b85" stroke-width="3.2" stroke-linecap="round" stroke-linejoin="round" color="#5e6b85"><path d="m10.586 5.414-5.172 5.172"/><path d="m18.586 13.414-5.172 5.172"/><path d="M6 12h12"/><circle cx="12" cy="20" r="2"/><circle cx="12" cy="4" r="2"/><circle cx="20" cy="12" r="2"/><circle cx="4" cy="12" r="2"/></g><text x="398.96" y="183" font-family="Roboto, -apple-system, BlinkMacSystemFont, 'Segoe UI', Helvetica, Arial, sans-serif" font-size="11" fill="#5e6b85" dominant-baseline="central" textLength="70.92" lengthAdjust="spacingAndGlyphs">4 relationships</text></g><g><title>Sessions</title><rect x="560.5" y="108.5" width="195" height="65" rx="10" fill="#ffffff" fill-opacity="0.8" stroke="#d1d9e6" stroke-width="1"/><g transform="translate(572 120) scale(0.67)" fill="none" stroke="#1a1f2e" stroke-width="2.63" stroke-linecap="round" stroke-linejoin="round" color="#1a1f2e"><path d="M14 4.1 12 6"/><path d="m5.1 8-2.9-.8"/><path d="m6 12-1.9 2"/><path d="M7.2 2.2 8 5.1"/><path d="M9.037 9.69a.498.498 0 0 1 .653-.653l11 4.5a.5.5 0 0 1-.074.949l-4.349 1.041a1 1 0 0 0-.74.739l-1.04 4.35a.5.5 0 0 1-.95.074z"/></g><text x="599" y="128" font-family="Roboto, -apple-system, BlinkMacSystemFont, 'Segoe UI', Helvetica, Arial, sans-serif" font-size="13" font-weight="500" fill="#1a1f2e" dominant-baseline="central" textLength="54.32" lengthAdjust="spacingAndGlyphs">Sessions</text><rect x="572" y="144" width="68.96" height="18" rx="6" fill="#edf1f8"/><g transform="translate(578 147) scale(0.5)" fill="none" stroke="#5e6b85" stroke-width="3.2" stroke-linecap="round" stroke-linejoin="round" color="#5e6b85"><rect width="18" height="18" x="3" y="3" rx="2"/><path d="M9 3v18"/><path d="M15 3v18"/></g><text x="594" y="153" font-family="Roboto, -apple-system, BlinkMacSystemFont, 'Segoe UI', Helvetica, Arial, sans-serif" font-size="11" fill="#5e6b85" dominant-baseline="central" textLength="40.96" lengthAdjust="spacingAndGlyphs">29 fields</text><rect x="644.96" y="144" width="98.92" height="18" rx="6" fill="#edf1f8"/><g transform="translate(650.96 147) scale(0.5)" fill="none" stroke="#5e6b85" stroke-width="3.2" stroke-linecap="round" stroke-linejoin="round" color="#5e6b85"><path d="m10.586 5.414-5.172 5.172"/><path d="m18.586 13.414-5.172 5.172"/><path d="M6 12h12"/><circle cx="12" cy="20" r="2"/><circle cx="12" cy="4" r="2"/><circle cx="20" cy="12" r="2"/><circle cx="4" cy="12" r="2"/></g><text x="666.96" y="153" font-family="Roboto, -apple-system, BlinkMacSystemFont, 'Segoe UI', Helvetica, Arial, sans-serif" font-size="11" fill="#5e6b85" dominant-baseline="central" textLength="70.92" lengthAdjust="spacingAndGlyphs">3 relationships</text></g><g><title>Trading Accounts</title><rect x="560.5" y="24.5" width="195" height="65" rx="10" fill="#ffffff" fill-opacity="0.8" stroke="#d1d9e6" stroke-width="1"/><g transform="translate(572 36) scale(0.67)" fill="none" stroke="#1a1f2e" stroke-width="2.63" stroke-linecap="round" stroke-linejoin="round" color="#1a1f2e"><path d="M16 21v-2a4 4 0 0 0-4-4H6a4 4 0 0 0-4 4v2"/><path d="M16 3.128a4 4 0 0 1 0 7.744"/><path d="M22 21v-2a4 4 0 0 0-3-3.87"/><circle cx="9" cy="7" r="4"/></g><text x="599" y="44" font-family="Roboto, -apple-system, BlinkMacSystemFont, 'Segoe UI', Helvetica, Arial, sans-serif" font-size="13" font-weight="500" fill="#1a1f2e" dominant-baseline="central" textLength="104.19" lengthAdjust="spacingAndGlyphs">Trading Accounts</text><rect x="572" y="60" width="68.96" height="18" rx="6" fill="#edf1f8"/><g transform="translate(578 63) scale(0.5)" fill="none" stroke="#5e6b85" stroke-width="3.2" stroke-linecap="round" stroke-linejoin="round" color="#5e6b85"><rect width="18" height="18" x="3" y="3" rx="2"/><path d="M9 3v18"/><path d="M15 3v18"/></g><text x="594" y="69" font-family="Roboto, -apple-system, BlinkMacSystemFont, 'Segoe UI', Helvetica, Arial, sans-serif" font-size="11" fill="#5e6b85" dominant-baseline="central" textLength="40.96" lengthAdjust="spacingAndGlyphs">12 fields</text><rect x="644.96" y="60" width="98.92" height="18" rx="6" fill="#edf1f8"/><g transform="translate(650.96 63) scale(0.5)" fill="none" stroke="#5e6b85" stroke-width="3.2" stroke-linecap="round" stroke-linejoin="round" color="#5e6b85"><path d="m10.586 5.414-5.172 5.172"/><path d="m18.586 13.414-5.172 5.172"/><path d="M6 12h12"/><circle cx="12" cy="20" r="2"/><circle cx="12" cy="4" r="2"/><circle cx="20" cy="12" r="2"/><circle cx="4" cy="12" r="2"/></g><text x="666.96" y="69" font-family="Roboto, -apple-system, BlinkMacSystemFont, 'Segoe UI', Helvetica, Arial, sans-serif" font-size="11" fill="#5e6b85" dominant-baseline="central" textLength="70.92" lengthAdjust="spacingAndGlyphs">2 relationships</text></g>
</svg>
